<svg xmlns="http://www.w3.org/2000/svg" width="72.445" height="90.591" viewBox="0 0 72.445 90.591">
  <g id="Grupo_8371" data-name="Grupo 8371" transform="translate(-198.709 -7765.595)">
    <g id="Grupo_8370" data-name="Grupo 8370" transform="translate(198.709 7770.246)">
      <path id="Trazado_2516" data-name="Trazado 2516" d="M228.589,7844.013c-16.139.283-23.325-7.131-24.755-14.262a8.557,8.557,0,0,0-2.551-4.581,7.553,7.553,0,0,1-2.552-4.746c-.354-3.993,3.645-5.841,3.863-5.942,9.56-8.219,18.709-39.049,27.263-43.08,10.754-4.289,19.364,3.578,22.114,12.907,2.415,9.711.831,14.339,0,19.023C249.917,7814.882,246.832,7844.549,228.589,7844.013Z" transform="translate(-198.709 -7770.201)" fill="#66425e"/>
      <path id="Trazado_2517" data-name="Trazado 2517" d="M225.262,7808.192c-1.594.117-3.29.392-5.464.682a20.538,20.538,0,0,1-4.181-.283,16.529,16.529,0,0,1,2.551-5.514,29.845,29.845,0,0,0,4.573-8.61c1.811,4.906,5.478,9.675,9.073,10.754.707.217,1.58.536,2.413.8a16,16,0,0,1-.123,3.618,19.9,19.9,0,0,0-8.841-1.444Z" transform="translate(-198.544 -7769.964)" fill="#66425e"/>
      <path id="Trazado_2518" data-name="Trazado 2518" d="M255.7,7812.782c-.29,1.29-.616,2.625-.978,3.957l-.007.007c-.21-.586-11.232-5.9-12.168-6.74s-1.594-3.863-1.485-5.463v-.008c2.391-1.138,4.2-3.21,5.87-6.36a23.881,23.881,0,0,0,9.624,10c-.188,1.3-.434,2.667-.746,4.095a1.235,1.235,0,0,0-.109.514Z" transform="translate(-198.296 -7769.929)" fill="#66425e"/>
    </g>
    <path id="Trazado_2519" data-name="Trazado 2519" d="M257.192,7804.537a31.552,31.552,0,0,1-.34,3.951,21.5,21.5,0,0,1-4.159-2.921,24.645,24.645,0,0,1-3.938-4.552,25.052,25.052,0,0,1-1.521-2.524,24.634,24.634,0,0,1-1.681-3.992c-1.13-3.522-1.834-7.2-3.036-10.689a29.365,29.365,0,0,0-1.449-3.5,10.519,10.519,0,0,0-4.523-5.03c-2.072-.993-5.7-.825-7.08,1.01-3.065,1.123-5.036,9.275-5.655,13.559a27.378,27.378,0,0,1-1.022,4.905,29.852,29.852,0,0,1-4.573,8.61,16.524,16.524,0,0,0-2.551,5.514,20.1,20.1,0,0,0-.355,9.008.984.984,0,0,1,.022.349c-.544-.044-1.073-.1-1.587-.161-.957-.934-2.066-2.958-2.45-6.3-1.362-11.8,5.486-18.6,6.168-26.206.129-2.866,4.912-13.27,9.138-16.407,5.385-4,12.044-4.971,17.305-1.2,4.856,3.479,8.776,11.443,9.74,18.131.486,3.4,1.725,7.566,2.594,11.421a36.314,36.314,0,0,1,.935,5.682v.007a13.2,13.2,0,0,1,.021,1.325Z" transform="translate(0.121 0)" fill="#7f576e"/>
    <path id="Trazado_2520" data-name="Trazado 2520" d="M265.469,7818.535c-.007.607-1.942,22.228-6.819,22.438-5.15.225-4.957-8.059-8.711-14.581a40.588,40.588,0,0,1-1.37,4.1.144.144,0,0,1-.014.05c-2.188-2.108-5.049-6.812-6.544-12.059a25.508,25.508,0,0,0-10.6,8.29c-1.761-2.493-4.436-7.3-7.262-8.482a19.41,19.41,0,0,0-2.726,4.8h-.007s-.087-.956-.182-2.181a2.917,2.917,0,0,0-2.8-2.675c-1.037-.035-3.624-.253-4.587-.34-5.174-.594-9.1-1.848-11.269-3.551a4.278,4.278,0,0,1-1.9-3.2c-.094-3.534,9.226-11.74,13.153-17.131a5.633,5.633,0,0,0,1.03-3.646,6.075,6.075,0,0,1,2.8-5.554v-.007a9.91,9.91,0,0,1,1.848-1,34.621,34.621,0,0,1-8.631,23.958,29.514,29.514,0,0,0,8.6,1.412c2.189-.05,4.342-.761,5.935-.877a18.459,18.459,0,0,1,6.914.81,1.623,1.623,0,0,0,2.026-1.087,1.657,1.657,0,0,0,.062-.3,1.3,1.3,0,0,0,.007-.166c0-.521-.022-1.01-.043-1.421.833.262,6.928-1.376,7.087-1.448a8.882,8.882,0,0,0,.087,1.694,7.373,7.373,0,0,0,1.4,3.77c.935.841,5.1-.725,7.189-.327,1.848.349,3.413,2.616,4.485,5.675.109.319.283.808.493,1.392.978,2.71,2.79,7.689,3.211,9.175.606-1.7,1.188-3.434,1.579-4.812a2.957,2.957,0,0,0-.478-2.559c-1.232-1.667-3.406-4.073-3.326-5.769.036-.174.073-.348.109-.514a1.532,1.532,0,0,1,.37-.565,2.974,2.974,0,0,0,.808-1.732,1.9,1.9,0,0,1,.557-1.3,1.692,1.692,0,0,1,.3-.22,1.256,1.256,0,0,0,.557-1.441,1.487,1.487,0,0,1,1.594-2.008.463.463,0,0,1,.189.06,5.515,5.515,0,0,1,.606.354,13.836,13.836,0,0,1,4.241,4.813,8.038,8.038,0,0,1,.645,1.484c.435,1.66-.587,4.3-.616,6.689Z" transform="translate(0.019 0.178)" fill="#ff8d98"/>
    <path id="Trazado_2521" data-name="Trazado 2521" d="M223.694,7789.757c.616-4.284,2.587-12.437,5.655-13.56,1.384-1.84,5.015-2.02,7.08-1.009a10.583,10.583,0,0,1,4.523,5.029,29.509,29.509,0,0,1,1.449,3.5c1.2,3.487,1.906,7.17,3.036,10.69a24.643,24.643,0,0,0,1.681,3.992c-1.674,3.153-3.479,5.226-5.87,6.361v.007c-.16.072-.326.146-.493.216-1.362.559-3.362,1.616-4.435,1.667a7.232,7.232,0,0,1-2.16-.435c-.833-.261-1.71-.581-2.413-.8-3.595-1.08-7.261-5.849-9.073-10.755a27.351,27.351,0,0,0,1.022-4.905Z" transform="translate(0.234 0.087)" fill="#ffa4a9"/>
    <path id="Trazado_2522" data-name="Trazado 2522" d="M211.684,7808.815a1.108,1.108,0,0,1-.352-.059c-.145-.043-.7-.141-1-.194-.333-.058-.64-.113-.8-.15a1.088,1.088,0,0,1,.484-2.121h.023c.131.031.388.073.665.124a10.689,10.689,0,0,1,1.333.279,1.088,1.088,0,0,1-.356,2.115Z" transform="translate(0.097 0.397)" fill="#f7617e"/>
    <path id="Trazado_2523" data-name="Trazado 2523" d="M227.519,7792.778a3.046,3.046,0,0,1-1.939-.606,2.084,2.084,0,0,1-1.334.267,1.088,1.088,0,0,1,.258-2.16h.022c-.01,0,.011-.019.034-.031a2.235,2.235,0,0,1,1.087-.34,1.714,1.714,0,0,1,1.137.447c.2.165.568.47,2.31-.042a1.087,1.087,0,1,1,.612,2.085,7.834,7.834,0,0,1-2.189.377Z" transform="translate(0.24 0.237)" fill="#66425e"/>
    <path id="Trazado_2524" data-name="Trazado 2524" d="M231.875,7799.176a.909.909,0,0,1-.419-1.71,3.252,3.252,0,0,0,.346-.216,2.339,2.339,0,0,1,2.763-.218c.039-.018.078-.04.121-.061a3.127,3.127,0,0,1,2.754-.1.91.91,0,0,1-.62,1.7v0a1.406,1.406,0,0,0-1.345.028,1.73,1.73,0,0,1-1.792.015c-.347-.21-.4-.17-.869.14a5.229,5.229,0,0,1-.522.32A.907.907,0,0,1,231.875,7799.176Z" transform="translate(0.315 0.302)" fill="#f44770"/>
    <path id="Trazado_2525" data-name="Trazado 2525" d="M234.722,7801.522a5.131,5.131,0,0,1-.86-.073.909.909,0,0,1,.3-1.786,3.419,3.419,0,0,0,2.106-.32.909.909,0,1,1,.826,1.616h0a5.225,5.225,0,0,1-2.375.564Z" transform="translate(0.336 0.328)" fill="#f44770"/>
    <path id="Trazado_2526" data-name="Trazado 2526" d="M228.531,7787.257a.924.924,0,0,1-.176-.017c-.217-.034-.495-.1-.814-.179-.808-.2-2.159-.526-2.805-.186a1.087,1.087,0,0,1-1.068-1.894l.054-.028c1.376-.724,3.157-.29,4.336,0,.252.062.473.118.644.146a1.086,1.086,0,0,1-.172,2.16Z" transform="translate(0.238 0.184)" fill="#66425e"/>
    <path id="Trazado_2527" data-name="Trazado 2527" d="M236.449,7785.822a1.087,1.087,0,0,1-.5-2.055,16.363,16.363,0,0,1,6.273-1.212,1.089,1.089,0,0,1,.1,2.175,15.387,15.387,0,0,0-5.381.975,1.08,1.08,0,0,1-.5.117Z" transform="translate(0.357 0.165)" fill="#66425e"/>
    <path id="Trazado_2528" data-name="Trazado 2528" d="M249.5,7827.114a1.082,1.082,0,0,1-.942-.545,14.675,14.675,0,0,0-2.415-3.2,1.087,1.087,0,0,1,1.526-1.547,16.812,16.812,0,0,1,2.773,3.66,1.087,1.087,0,0,1-.942,1.628Z" transform="translate(0.46 0.546)" fill="#f7617e"/>
    <path id="Trazado_2529" data-name="Trazado 2529" d="M255.675,7832.476A1.084,1.084,0,0,1,254.66,7831c.439-1.144,1.3-3.407,2.113-5.706a1.087,1.087,0,1,1,2.061.692l-.012.033c-.823,2.323-1.689,4.607-2.133,5.756a1.086,1.086,0,0,1-1.015.7Z" transform="translate(0.545 0.575)" fill="#f7617e"/>
    <path id="Trazado_2530" data-name="Trazado 2530" d="M237.411,7791.016h-.039a1.087,1.087,0,0,1,.006-2.175h.028a6.03,6.03,0,0,0,3.084-.651,2.026,2.026,0,0,1,1.326-.479,2.113,2.113,0,0,0,.8-.175,1.088,1.088,0,0,1,1.065,1.9l-.06.031a4.142,4.142,0,0,1-1.6.413c-.061.007-.118.009-.171.016-1.292,1.061-3.823,1.125-4.433,1.125Z" transform="translate(0.367 0.213)" fill="#66425e"/>
    <path id="Trazado_2531" data-name="Trazado 2531" d="M256.835,7804.387c-.572.155-3.332.767-4.5,1.027-.326.073-.529.117-.529.117l-3.065.775-.348-5.442-.715-19a.844.844,0,0,1,1.615-.384c2.143,5.814,2.689,10.826,6.589,15.9a36.281,36.281,0,0,1,.935,5.681v.006a12.963,12.963,0,0,1,.02,1.329Z" transform="translate(0.478 0.15)" fill="#66425e"/>
    <path id="Trazado_2532" data-name="Trazado 2532" d="M241.332,7772.43a24.875,24.875,0,0,1,7.391,13.357c1.068,5.229,1.786,10.21,4.189,13.127a29.58,29.58,0,0,0,4.254,4.261,21.109,21.109,0,0,0,3.123,2.108c.269.146.536.282.8.413a19.834,19.834,0,0,0,7.754,1.892,1.2,1.2,0,0,1,.232,2.349,16.23,16.23,0,0,1-3.736.572,16.511,16.511,0,0,1-7.493-1.558c-.333-.152-.666-.312-.993-.493a23.867,23.867,0,0,1-9.624-10,24.592,24.592,0,0,1-1.681-3.992c-1.13-3.522-1.833-7.2-3.036-10.689a29.456,29.456,0,0,0-1.449-3.5,10.515,10.515,0,0,0-4.522-5.029c-2.072-.992-5.7-.826-7.08,1.01-3.066,1.123-5.037,9.275-5.655,13.56a27.376,27.376,0,0,1-1.022,4.9,29.834,29.834,0,0,1-4.575,8.608,16.551,16.551,0,0,0-2.55,5.514,20.1,20.1,0,0,0-.355,9.009.98.98,0,0,1,.022.348c-.036.659-.761.659-1.587-.159-.956-.935-2.065-2.958-2.45-6.3-1.388-12.033,8.489-13.582,8.112-27.792,0,0,3.005-11.713,10.124-13.795,5.171-1.515,8.1-.847,11.814,2.271Z" transform="translate(0.121 0.036)" fill="#7f576e"/>
    <path id="Trazado_2533" data-name="Trazado 2533" d="M241.221,7806.177c-2.717,2.472-5.333,2.356-7.138,1.341a1.325,1.325,0,0,0,.007-.167c0-.521-.022-1.009-.043-1.42a7.325,7.325,0,0,0,2.16.435c1.072-.05,3.073-1.11,4.435-1.667.167-.072.333-.145.493-.217a8.9,8.9,0,0,0,.087,1.7Z" transform="translate(0.345 0.379)" fill="#f44770"/>
    <path id="Trazado_2534" data-name="Trazado 2534" d="M214.888,7819.727a2,2,0,0,1-.753-.152c-1.576-.629-3.4-3.267-3.914-7.742-.731-6.337,1.556-10.07,3.768-13.678s4.517-7.372,4.336-14.213a1.087,1.087,0,0,1,1.057-1.111,1.068,1.068,0,0,1,1.111,1.021v.037c.2,7.49-2.379,11.7-4.654,15.407-2.2,3.6-4.108,6.7-3.461,12.292a11.285,11.285,0,0,0,1.646,5.073,20.471,20.471,0,0,1,3.321-14.009c4.412-6,5-10.19,5.347-12.693l.045-.331c.183-1.277,1.873-12.3,6.059-14.306,1.813-2.048,5.747-2.294,8.222-1.1a11.369,11.369,0,0,1,5.022,5.523,47.561,47.561,0,0,1,3.179,9.461c.42,1.616.853,3.29,1.366,4.886,3.029,9.409,12.165,17.5,22.215,14.755.047-.014.085-.022.073-.122s-.038-.093-.088-.1c-4.813-.3-10.562-1.616-16.7-9.065-3.8-4.607-5.934-14.983-6.181-20.543a1.088,1.088,0,0,1,1.038-1.134,1.062,1.062,0,0,1,1.131.989v.049c.243,5.477,2.355,15.218,5.688,19.257,5.6,6.788,10.594,7.989,15.161,8.28a2.287,2.287,0,0,1,.448,4.485c-11.309,3.09-21.518-5.8-24.853-16.186-.533-1.657-.975-3.359-1.4-5.005a45.265,45.265,0,0,0-3.018-9.034,9.326,9.326,0,0,0-4.021-4.535c-1.691-.816-4.731-.653-5.736.687a1.094,1.094,0,0,1-.5.368c-2.073.759-4.147,7.053-4.948,12.7l-.046.324c-.352,2.53-1.01,7.236-5.747,13.679a18.492,18.492,0,0,0-2.719,13.661,1.725,1.725,0,0,1-.5,1.782,1.516,1.516,0,0,1-.986.35Z" transform="translate(0.111 0.077)" fill="#7f576e"/>
    <path id="Trazado_2535" data-name="Trazado 2535" d="M230.8,7825.266a1.085,1.085,0,0,1-1.087-1.034c-.146-3,1.062-4.509,2.928-6.474a1.087,1.087,0,0,1,1.577,1.495c-1.739,1.833-2.433,2.787-2.33,4.872a1.088,1.088,0,0,1-1.032,1.14Z" transform="translate(0.302 0.505)" fill="#f7617e"/>
    <path id="Trazado_2536" data-name="Trazado 2536" d="M241.624,7819.547a1.181,1.181,0,0,1-.3-.043,1.111,1.111,0,0,1-.748-1.363c1.387-4.979,6.563-9.035,8.926-9.585a1.087,1.087,0,0,1,1.3.818v.013a1.105,1.105,0,0,1-.817,1.325c-1.616.375-6.166,3.893-7.319,8.032a1.092,1.092,0,0,1-1.049.8Z" transform="translate(0.408 0.419)" fill="#33335b"/>
    <path id="Trazado_2537" data-name="Trazado 2537" d="M223.938,7819.377a1.085,1.085,0,0,1-1.035-.768,13.048,13.048,0,0,1,1.414-11.138,10.368,10.368,0,0,1,.648-.832,1.075,1.075,0,0,1,1.515-.118l.018.017a1.121,1.121,0,0,1,.1,1.562,7.966,7.966,0,0,0-.513.657,10.768,10.768,0,0,0-1.111,9.176,1.11,1.11,0,0,1-.707,1.39.987.987,0,0,1-.332.055Z" transform="translate(0.23 0.397)" fill="#33335b"/>
    <path id="Trazado_2538" data-name="Trazado 2538" d="M260.182,7854.229c-.909-2.787-5.565-7.832-7.285-9.216-6.087-4.9-5.185-9.244-3.5-14.01a1.117,1.117,0,0,0-.272-1.176c-1.964-1.927-4.759-6.43-6.251-11.771a1.1,1.1,0,0,0-.559-.687,1.074,1.074,0,0,0-.875-.043,25.369,25.369,0,0,0-9.4,6.779.863.863,0,0,1-1.361-.1c-1.3-1.9-4.342-6.073-6.336-6.878a1.086,1.086,0,0,0-1.212.333c-1.542,1.775-4.058,6.986-4.065,9.679-.007,2.953,1.856,5.72,3.658,8.4l.124.187c7.284,10.821,5.942,18.57,5.926,18.646a1.11,1.11,0,0,0,.23.909,1.075,1.075,0,0,0,.837.4h29.306a1.08,1.08,0,0,0,.883-.458,1.121,1.121,0,0,0,.148-1Z" transform="translate(0.199 0.502)" fill="#33335b"/>
  </g>
</svg>
