<svg xmlns="http://www.w3.org/2000/svg" width="85" height="76.446" viewBox="0 0 85 76.446">
  <g id="Grupo_54377" data-name="Grupo 54377" transform="translate(-390 -14085)">
    <g id="Grupo_8374" data-name="Grupo 8374" transform="translate(205.364 6166.547)">
      <path id="Trazado_2539" data-name="Trazado 2539" d="M231.068,7961.181a2.563,2.563,0,0,1,3.6.46,2.615,2.615,0,0,1,.557,1.869l2.153-1.7a1.929,1.929,0,0,0,.285-2.711l-2.14-2.705a2.631,2.631,0,1,0-2.337-3.048l-2.054-2.772a1.927,1.927,0,0,0-2.7-.429l-2.2,1.642a2.576,2.576,0,1,1-2.987,2.285l-2.152,1.7a1.928,1.928,0,0,0-.285,2.712l2.139,2.7a2.631,2.631,0,1,0,2.337,3.049l2.057,2.767a1.925,1.925,0,0,0,2.69.437h0l2.2-1.641a2.617,2.617,0,0,1-1.657-1.024,2.564,2.564,0,0,1,.483-3.592h.006Z" transform="translate(5.017 5.341)" fill="#f74d66"/>
      <path id="Trazado_2540" data-name="Trazado 2540" d="M244.368,7955.574a1.715,1.715,0,0,0,1.448.5l5.715-.731a1.388,1.388,0,0,0,.8-2.356l-.586-.587,2.609-2.605a1.745,1.745,0,0,0,0-2.462h0l-1.724-1.725a1.746,1.746,0,0,0-2.462-.007l-2.628,2.6-.586-.588a1.386,1.386,0,0,0-2.356.8l-.733,5.715a1.726,1.726,0,0,0,.495,1.447Z" transform="translate(9.125 4.531)" fill="#339eef"/>
      <path id="Trazado_2541" data-name="Trazado 2541" d="M225.129,7974.816a1.732,1.732,0,0,0-1.449-.5l-5.714.732a1.388,1.388,0,0,0-.8,2.355l.586.587-2.6,2.634a1.742,1.742,0,0,0,.007,2.463l1.725,1.726a1.747,1.747,0,0,0,2.463,0h0l2.6-2.61.586.586a1.387,1.387,0,0,0,2.356-.8l.733-5.716a1.721,1.721,0,0,0-.495-1.446Z" transform="translate(4.083 9.574)" fill="#339eef"/>
      <path id="Trazado_2543" data-name="Trazado 2543" d="M240.972,7947.483a11.654,11.654,0,0,1,.287,6.533c-.7,1.737-2.678,2.165-3.628.977a2.022,2.022,0,0,1-.419-.835c-1.135-4.105-4.187-9.167-7.249-11-4.143-2.463-7.684,1.115-8.051,3.609-.322,2.233,1.344,7,2.207,10.363.157.637.288,1.222.383,1.726.629,3.578-3.235,6.451-4.648,2.881a38.183,38.183,0,0,0-3.682-6.481,108.457,108.457,0,0,0-9.167-10.843c-1.7-1.779-4.988-5.521-8.653-7.729a12.776,12.776,0,0,1,1.3-6.793c1.926-3.562,6.128-5.276,6.281-5.461a33.579,33.579,0,0,0,11.915,3.5c3.856.471,10.671.637,15.047,3.332.235.139.453.288.68.436a19.333,19.333,0,0,1,5.644,5.81C241.591,7941.352,242.14,7945.383,240.972,7947.483Z" transform="translate(1.263 0.965)" fill="#ff977b"/>
      <path id="Trazado_2544" data-name="Trazado 2544" d="M249.72,7966.9l2.128,1.831a1.949,1.949,0,0,1,.208,2.749l-5.882,6.841a1.95,1.95,0,0,1-2.749.208l-2.127-1.832a2.593,2.593,0,1,1-2.814-2.413l-2.616-2.249a1.927,1.927,0,0,1-.235-2.715l1.79-2.078a2.633,2.633,0,0,1-1.846-.634,2.536,2.536,0,0,1,3.26-3.885l.044.035a2.626,2.626,0,0,1,.9,1.73l1.787-2.078a1.926,1.926,0,0,1,2.721-.175l2.616,2.248a2.587,2.587,0,1,0,2.814,2.417Z" transform="translate(7.54 7.407)" fill="#4a67ce"/>
      <path id="Trazado_2545" data-name="Trazado 2545" d="M236.318,7946.971a.873.873,0,0,1-.833-.618c-1.3-4.213-3.576-9.4-9.648-12.182a.873.873,0,0,1,.726-1.588c6.706,3.068,9.181,8.7,10.589,13.259a.87.87,0,0,1-.834,1.13Z" transform="translate(5.927 2.358)" fill="#ed4850"/>
      <g id="Grupo_8373" data-name="Grupo 8373" transform="translate(190.988 7918.833)">
        <path id="Trazado_2547" data-name="Trazado 2547" d="M200.194,7936.373c-.286.6-.542,1.173-.76,1.718a1.571,1.571,0,0,1-2.017.929,1.645,1.645,0,0,1-.177-.078l-5.416-2.865a1.548,1.548,0,0,1-.76-1.854c.918-2.89,6.493-12.139,9.232-15.064a1.4,1.4,0,0,1,1.693-.071l5.122,3.548a1.551,1.551,0,0,1,.578,2.117,1.588,1.588,0,0,1-.175.248c-.234.278-.512.609-.821.994A65.984,65.984,0,0,0,200.194,7936.373Z" transform="translate(-190.988 -7918.833)" fill="#4e3d7c"/>
      </g>
    </g>
    <rect id="Rectángulo_5465" data-name="Rectángulo 5465" width="85" height="76" transform="translate(390 14085)" fill="none"/>
  </g>
</svg>
