<svg xmlns="http://www.w3.org/2000/svg" width="85" height="72.163" viewBox="0 0 85 72.163">
  <g id="Grupo_54374" data-name="Grupo 54374" transform="translate(-390 -14483)">
    <g id="Grupo_8381" data-name="Grupo 8381" transform="translate(207.481 6106.938)">
      <path id="Trazado_2563" data-name="Trazado 2563" d="M188.844,8412.434a1.742,1.742,0,0,0-1.218,1.7v35.374a1.707,1.707,0,0,0,2.1,1.712c10.75-2.707,24.37-1.484,33.286,3.607a3.252,3.252,0,0,0,3.245,0c8.917-5.092,22.541-6.314,33.287-3.607a1.707,1.707,0,0,0,2.055-1.275,1.657,1.657,0,0,0,.044-.437v-35.374a1.742,1.742,0,0,0-1.217-1.7c-11.543-3.273-26.746-.158-35.792,5.725-9.044-5.885-24.248-9-35.79-5.725Z" transform="translate(0 -7.036)" fill="#4e3b56"/>
      <path id="Trazado_2564" data-name="Trazado 2564" d="M256.659,8407.135c-9.521-1.539-24.143,1.117-30.069,7.547a.919.919,0,0,1-1.3.06c-.021-.02-.041-.038-.06-.06-5.927-6.43-20.548-9.086-30.069-7.547a1.825,1.825,0,0,0-1.523,1.806v33.306a1.76,1.76,0,0,0,1.7,1.821h.1c4.051.131,22.513.874,29.791,8.366a.935.935,0,0,0,1.322.035l.024-.024c7.263-7.5,25.581-8.208,29.8-8.377a1.838,1.838,0,0,0,1.8-1.821v-33.3a1.823,1.823,0,0,0-1.523-1.8Z" transform="translate(-1.274 -6.104)" fill="#f7f0df"/>
      <path id="Trazado_2565" data-name="Trazado 2565" d="M246.063,8424.74a18.437,18.437,0,0,1-3.291,1.29c-.727.235-1.444-.07-1.479-.653a29.281,29.281,0,0,1,0-4.288.947.947,0,0,1,.556-.685,17.923,17.923,0,0,1,3.631-1.37.936.936,0,0,1,1.261.831c0,1.17,0,2.582-.069,3.822a1.546,1.546,0,0,1-.6,1.053Z" transform="translate(-11.353 -8.703)" fill="#ff736c"/>
      <path id="Trazado_2566" data-name="Trazado 2566" d="M207.723,8443.955a25.546,25.546,0,0,1-2.995-.4.974.974,0,0,1-.828-.92c-.086-1.537-.028-4.659.064-6.2a.9.9,0,0,1,.893-.9h.02a16.054,16.054,0,0,1,3.322.5.915.915,0,0,1,.652.9c-.016,1.538.026,4.612-.064,6.153a.922.922,0,0,1-.962.879.945.945,0,0,1-.1-.014Z" transform="translate(-3.439 -12.211)" fill="#ff736c"/>
      <g id="Grupo_8380" data-name="Grupo 8380" transform="translate(199.772 8407.412)">
        <path id="Trazado_2567" data-name="Trazado 2567" d="M253.313,8417.863a.689.689,0,0,1-.17-1.358,33.145,33.145,0,0,1,8.767-1.158.69.69,0,0,1,.667.71.664.664,0,0,1-.663.668h-.05a32.375,32.375,0,0,0-8.379,1.115.563.563,0,0,1-.171.021Z" transform="translate(-213.543 -8415.347)" fill="#ff9e88"/>
        <path id="Trazado_2568" data-name="Trazado 2568" d="M253.314,8422.983a.69.69,0,0,1-.17-1.359,33.179,33.179,0,0,1,8.766-1.158.69.69,0,0,1,.667.71.665.665,0,0,1-.66.668h-.054a32.344,32.344,0,0,0-8.381,1.114.616.616,0,0,1-.169.023Z" transform="translate(-213.543 -8416.432)" fill="#ff9e88"/>
        <path id="Trazado_2569" data-name="Trazado 2569" d="M241.029,8434.87a.691.691,0,0,1-.358-1.281c4.694-2.837,12.37-4.762,18.627-4.666a.69.69,0,0,1-.009,1.381h-.009c-6.047-.088-13.4,1.754-17.9,4.467a.685.685,0,0,1-.356.1Z" transform="translate(-210.941 -8418.223)" fill="#ff9e88"/>
        <path id="Trazado_2570" data-name="Trazado 2570" d="M241.708,8442.717a.691.691,0,0,1-.35-1.285c5.276-3.1,14.561-5.146,18.179-4.591a.69.69,0,0,1-.158,1.371.127.127,0,0,1-.051-.007c-3.051-.473-12,1.324-17.27,4.418a.7.7,0,0,1-.352.094Z" transform="translate(-211.085 -8419.882)" fill="#ff9e88"/>
        <path id="Trazado_2571" data-name="Trazado 2571" d="M241.367,8450.565a.689.689,0,0,1-.35-1.284c5.275-3.1,14.556-5.146,18.177-4.592a.69.69,0,1,1-.158,1.371l-.05-.008c-3.05-.469-12,1.324-17.269,4.418a.692.692,0,0,1-.351.095Z" transform="translate(-211.012 -8421.544)" fill="#ff9e88"/>
        <path id="Trazado_2572" data-name="Trazado 2572" d="M222.68,8434.729a.68.68,0,0,1-.372-.108c-3.56-2.287-11.57-4.428-18.634-4.984a.691.691,0,0,1,.109-1.378c6.329.5,14.979,2.443,19.271,5.2a.691.691,0,0,1-.374,1.271Z" transform="translate(-203.038 -8418.082)" fill="#ff9e88"/>
        <path id="Trazado_2573" data-name="Trazado 2573" d="M223.986,8442.868a.693.693,0,0,1-.349-.094,38.753,38.753,0,0,0-11.314-3.936.691.691,0,0,1,.214-1.365.3.3,0,0,1,.05.011,39.567,39.567,0,0,1,11.753,4.1.69.69,0,0,1-.351,1.286Z" transform="translate(-204.881 -8420.032)" fill="#ff9e88"/>
        <path id="Trazado_2574" data-name="Trazado 2574" d="M224.262,8450.705a.7.7,0,0,1-.349-.095,39.355,39.355,0,0,0-11.578-3.986.691.691,0,0,1,.255-1.358,40.9,40.9,0,0,1,12.023,4.153.691.691,0,0,1-.35,1.287Z" transform="translate(-204.888 -8421.684)" fill="#ff9e88"/>
      </g>
      <path id="Trazado_2575" data-name="Trazado 2575" d="M242.309,8417.01Z" transform="translate(-11.586 -8.286)" fill="#4e3b56"/>
      <path id="Trazado_2576" data-name="Trazado 2576" d="M234.372,8455.151a.682.682,0,0,1-.69-.675V8417.63a.69.69,0,1,1,1.38,0v36.846a.683.683,0,0,1-.69.675Z" transform="translate(-9.758 -8.267)" fill="#f9c7ac"/>
      <path id="Trazado_2577" data-name="Trazado 2577" d="M222.683,8427.395a.7.7,0,0,1-.345-.094,38.542,38.542,0,0,0-18.59-4.831h-.014a.69.69,0,1,1,.013-1.38,39.989,39.989,0,0,1,19.285,5.021.69.69,0,0,1-.345,1.287Z" transform="translate(-3.268 -9.151)" fill="#ff9e88"/>
      <path id="Trazado_2578" data-name="Trazado 2578" d="M216.378,8418.166a.7.7,0,0,1-.349-.034,33.658,33.658,0,0,0-11.834-1.907.692.692,0,1,1-.093-1.38,34.8,34.8,0,0,1,12.412,1.991.69.69,0,0,1-.138,1.327Z" transform="translate(-3.354 -7.819)" fill="#ff9e88"/>
      <path id="Trazado_2579" data-name="Trazado 2579" d="M231.188,8377.9a13.015,13.015,0,0,0-9.674,21.867,12.971,12.971,0,0,1,3.572,8.811v.621a14.362,14.362,0,0,0,11.935,0v-.621a12.61,12.61,0,0,1,3.468-8.7A13.013,13.013,0,0,0,231.2,8377.9Z" transform="translate(-6.444)" fill="#ffc639"/>
      <path id="Trazado_2580" data-name="Trazado 2580" d="M234.363,8416.725a.688.688,0,0,1-.69-.69v-7.417a.69.69,0,0,1,1.381,0v7.416a.691.691,0,0,1-.69.691Z" transform="translate(-9.756 -6.362)" fill="#fff"/>
      <circle id="Elipse_37" data-name="Elipse 37" cx="0.735" cy="0.735" r="0.735" transform="translate(223.871 8397.896)" fill="#fff"/>
      <path id="Trazado_2581" data-name="Trazado 2581" d="M236.3,8399.336h0a4.1,4.1,0,0,1-3.862-2.527,4.121,4.121,0,0,1-3.929,2.527h-.007a4.07,4.07,0,0,1-2.963-1.214,4.157,4.157,0,0,1-1.15-2.917v-.015a3.721,3.721,0,0,1,3.493-3.934,3.81,3.81,0,0,1,.422,0h0a4.531,4.531,0,0,1,4.132,2.316,4.564,4.564,0,0,1,4.056-2.316h0a3.728,3.728,0,0,1,3.917,3.934,4.179,4.179,0,0,1-1.15,2.936,4.073,4.073,0,0,1-2.963,1.213Zm-2.995-4.486a.7.7,0,0,0-.009.575c.819,1.878,1.623,2.533,3,2.534a2.669,2.669,0,0,0,1.978-.8,2.785,2.785,0,0,0,.759-1.958,2.346,2.346,0,0,0-2.535-2.571h0a3.376,3.376,0,0,0-3.193,2.216Zm-7.537.355a2.785,2.785,0,0,0,.76,1.958,2.671,2.671,0,0,0,1.97.795c1.468,0,2.255-.631,3.067-2.544a.7.7,0,0,0-.006-.561,3.33,3.33,0,0,0-3.256-2.221h0a2.342,2.342,0,0,0-2.536,2.128,2.372,2.372,0,0,0,0,.43Z" transform="translate(-7.786 -2.828)" fill="#fff"/>
      <path id="Trazado_2582" data-name="Trazado 2582" d="M232.942,8417.953a18.791,18.791,0,0,1-5.963-.989h0a5.971,5.971,0,1,0,11.935.389c0-.128,0-.257,0-.385a18.879,18.879,0,0,1-5.968.985Z" transform="translate(-8.337 -8.277)" fill="#4e3b56"/>
    </g>
    <rect id="Rectángulo_5462" data-name="Rectángulo 5462" width="85" height="72" transform="translate(390 14483)" fill="none"/>
  </g>
</svg>
