<svg xmlns="http://www.w3.org/2000/svg" width="85" height="76" viewBox="0 0 85 76">
  <g id="Grupo_54373" data-name="Grupo 54373" transform="translate(-390 -14616)">
    <g id="Grupo_8384" data-name="Grupo 8384" transform="translate(205.265 6085.53)">
      <path id="Trazado_2583" data-name="Trazado 2583" d="M261.493,8571.176a35.743,35.743,0,0,1-13.673,28.152v0a35.838,35.838,0,0,1-57.04-36.32h.006a35.808,35.808,0,0,1,13.92-20.887h.006a35.369,35.369,0,0,1,4.656-2.86,35.893,35.893,0,0,1,26.461-2.443,34.832,34.832,0,0,1,8.414,3.722,35.9,35.9,0,0,1,10.259,9.373h.007a35.72,35.72,0,0,1,5.83,12.2h.007a37.545,37.545,0,0,1,.873,4.588c.136,1.113.227,2.239.259,3.383.012.363.012.719.012,1.083Z" transform="translate(0 -0.736)" fill="#59a5b2"/>
      <g id="Grupo_8383" data-name="Grupo 8383" transform="translate(190.795 8536.087)">
        <path id="Trazado_2584" data-name="Trazado 2584" d="M262.119,8550.192c-3.014.345-3.887-.947-9.244-1.456s-1.821,8.488-7.559,6.532-2.516-8.63-5.548-11.243-1.629-5.032,3.679-6.927a34.832,34.832,0,0,1,8.415,3.722,35.915,35.915,0,0,1,10.258,9.374Z" transform="translate(-198.408 -8537.099)" fill="#63ceba"/>
        <path id="Trazado_2585" data-name="Trazado 2585" d="M226.8,8601.534a9.811,9.811,0,0,0-.953,6.734,35.894,35.894,0,0,1-7.414-.768c.006-.229.092-5.131-1.975-7.376-2.116-2.3-4.723-2.922-4.723-7.275s-5.259-9.288-7.153-10.7c-2.928-2.178-7.153-1.058-8.027-7.651s-3.026-8.623-5.585-10.217a35.809,35.809,0,0,1,13.92-20.887h.006c5.9,2.431,9.639.628,12.867,1.311s2.27,7.375,5.88,9.675c3.556,2.271-1.587,8.864-5.819,4.816s-6.113.83-5.658,3.549c.812,4.834-.24,7.454-3.666,8.623a3.889,3.889,0,0,0-2.436,4.908,4.212,4.212,0,0,0,1.876,2.418c3.075,1.778,7.928,5.412,12.031,3.732s10.6-1.991,10.785,2.239S228.673,8597.895,226.8,8601.534Z" transform="translate(-190.973 -8538.09)" fill="#63ceba"/>
        <path id="Trazado_2586" data-name="Trazado 2586" d="M269.979,8576.017a35.743,35.743,0,0,1-13.673,28.152c-.356-4.13-.412-5.764-5.278-10.519s-6.421-4.761-4.65-10.266,2.454-3.045-1.273-7.8.868-8.335,4.971-9.325,4.976,3,9.084,2.106c3.181-.689,6.993-3.69,9.669-1.4h.007a37.555,37.555,0,0,1,.873,4.589c.136,1.112.227,2.238.259,3.382.012.363.012.72.012,1.083Z" transform="translate(-199.28 -8541.664)" fill="#63ceba"/>
      </g>
      <path id="Trazado_2587" data-name="Trazado 2587" d="M238.924,8561.77l-1.5,2.852a.874.874,0,0,0,1.087,1.225l3.685-1.414a2.581,2.581,0,0,1,2.275.209,18.351,18.351,0,1,0-5.7-5.543,2.625,2.625,0,0,1,.153,2.672Z" transform="translate(-7.23)" fill="#f7f0e8"/>
      <path id="Trazado_2588" data-name="Trazado 2588" d="M250.972,8544.53a5.679,5.679,0,0,1,4.259,1.928.511.511,0,0,0,.721.045l.046-.045a5.679,5.679,0,0,1,4.259-1.928c3.161,0,5.313,2.6,5.313,5.8a10.2,10.2,0,0,1-3.2,6.886,14.145,14.145,0,0,1-6.442,3.508,1.7,1.7,0,0,1-.633,0,14.145,14.145,0,0,1-6.443-3.51,10.2,10.2,0,0,1-3.2-6.885c0-3.2,2.155-5.8,5.316-5.8Z" transform="translate(-8.787 -2.182)" fill="#ff889c"/>
    </g>
    <rect id="Rectángulo_5461" data-name="Rectángulo 5461" width="85" height="76" transform="translate(390 14616)" fill="none"/>
  </g>
</svg>
