<svg xmlns="http://www.w3.org/2000/svg" width="287.506" height="226.69" viewBox="0 0 287.506 226.69">
  <g id="Grupo_54029" data-name="Grupo 54029" transform="translate(-80.3 -17.841)">
    <g id="Shadow" transform="translate(80.3 216.019)">
      <path id="Trazado_100806" data-name="Trazado 100806" d="M212.2,681.434c-8.42.023-16.839.205-25.244,1.049-3.169.318-6.272,1.018-9.448,1.3-6.344.563-12.575,1.615-18.942,2.1-5.127.391-10.276.621-15.388,1.117a59.961,59.961,0,0,1-14.855-.41c-3.521-.568-7.058-.888-10.52-1.8a47.3,47.3,0,0,0-12.115-1.725c-5.754.037-11.357.042-16.863,1.845a17.1,17.1,0,0,0-5.767,3c-3.36,3.041-3.815,10.627-.46,13.78,5.651,5.307,17.711,7.39,25.632,7.488,8.679.108,17.111-.474,25.8-.816,8.077-.318,16.134-.77,24.224-.754,16.523.033,33.049,0,49.543-1,15.5-.936,31.031-.615,46.562-.615,15.926,0,31.743.113,47.554,2.023,6.889.832,13.907,1.123,20.831,1.706,6.2.522,12.159-.01,18.335-.493a47.527,47.527,0,0,0,15.049-3.639c3.729-1.609,10.378-6.6,11.521-10.444,3.206-10.762-45.185-10.5-52.615-10.479-8.312.027-16.69.274-24.995-.012a64.876,64.876,0,0,1-10.345-1.412c-3.4-.672-6.818-.5-10.262-.784-14.362-1.179-28.757-1.006-43.165-1.006C221.583,681.458,216.892,681.421,212.2,681.434Z" transform="translate(-80.3 -681.431)" fill="#f1f2f2"/>
    </g>
    <g id="object" transform="translate(80.836 17.841)">
      <path id="Trazado_100807" data-name="Trazado 100807" d="M350.243,493.119l14.179,47.686,6.352,2.989,65.426-5.326s4.145-5.872,4.145-9.328,4.1-25.293,4.1-25.293Z" transform="translate(-270.162 -351.179)" fill="#fff"/>
      <g id="Grupo_53901" data-name="Grupo 53901" transform="translate(91.363 49.625)">
        <g id="Grupo_53895" data-name="Grupo 53895" transform="translate(15.885 98.452)">
          <g id="Grupo_53892" data-name="Grupo 53892" transform="translate(27.656 34.66)">
            <g id="Grupo_53891" data-name="Grupo 53891" transform="translate(0.097)">
              <path id="Trazado_100808" data-name="Trazado 100808" d="M534.144,629.73l.214,13c-.087,3.607.237,7.2.457,10.8.2,3.339-.469,6.78,1.115,9.875.5.97,1.554,1.646,2.358.525.62-.864.335-2.358.488-3.361,1.151-7.535,3.292-14.884,4.361-22.434C544.256,630.222,541.2,630.431,534.144,629.73Z" transform="translate(-534.144 -629.73)" fill="#eacdb0"/>
            </g>
            <path id="Trazado_100809" data-name="Trazado 100809" d="M534.654,733.979l-.836,2.169,4.113,3.62,3.767.155,1.218-1.988-5.067-4.406Z" transform="translate(-533.818 -702.53)" fill="#3b455a"/>
          </g>
          <g id="Grupo_53894" data-name="Grupo 53894" transform="translate(7.52 34.018)">
            <g id="Grupo_53893" data-name="Grupo 53893" transform="translate(0.505)">
              <path id="Trazado_100810" data-name="Trazado 100810" d="M478.6,628.348l-2.371,12.783c-.822,5.719-2.69,11.288-3.512,17.006a14.889,14.889,0,0,1-.643,3.993c-.538,1.213-1.59,1.261-2.519.438-1.244-1.1-.67-3.073-.647-4.58.152-10.036-.637-19.929-.827-29.981a.449.449,0,0,1,.105-.367.432.432,0,0,1,.308-.059C469.474,627.647,478.553,628.624,478.6,628.348Z" transform="translate(-468.085 -627.579)" fill="#eacdb0"/>
            </g>
            <path id="Trazado_100811" data-name="Trazado 100811" d="M467.7,736.823l-1.3,1.924,3.189,4.455,3.635,1,1.636-1.661-3.942-5.436Z" transform="translate(-466.393 -704.198)" fill="#3b455a"/>
          </g>
          <path id="Trazado_100812" data-name="Trazado 100812" d="M482.364,556.6l-1.773-18.584-.855-12.075-2.876-9.862-15.527-2.41-19.2,3.29-.923,3.73,3.695,34.524,18.516,1.388-.251-21.487,2.856,13.318-.121,8.169Z" transform="translate(-441.213 -513.671)" fill="#474ebb"/>
        </g>
        <path id="Trazado_100813" data-name="Trazado 100813" d="M457.717,350.97q-.039.941-.054,1.881c-.225,12.748.478,25.657.559,38.511a142.723,142.723,0,0,1,19.9-1.7c1.542-.023,8.553,1.06,9.529.139,1.325-1.25-.132-1.014-.035-2.642.125-2.106-.886-3.831-.5-6.327.449-2.933,1.343-5.835,1.858-8.767a128.019,128.019,0,0,0,1.855-17.8c.179-5.293-.013-10.781-2.289-15.563-5.613-11.791-23.708-11.579-28.673.733A34.537,34.537,0,0,0,457.717,350.97Z" transform="translate(-436.833 -286.419)" fill="#fff"/>
        <path id="Trazado_100814" data-name="Trazado 100814" d="M569.107,244.4c1.935-2.507,2.776-5.217,3.6-8.624.611-2.534,1.124-5.1,1.626-7.655a27.181,27.181,0,0,0,.665-4.875c.027-1.424.83-3.392-.421-4.532a1.065,1.065,0,0,1,1.58-.37.677.677,0,0,0,.242.165.434.434,0,0,0,.421-.22,3.588,3.588,0,0,0,.431-1.4,5.629,5.629,0,0,1,1.039-2.591,5.218,5.218,0,0,1,1.7-.951.412.412,0,0,1,.591.128,24.27,24.27,0,0,1,1.853,2.171c-.845.7-.994,1.749-1.478,2.686-.636,1.23-1.413,2.2-1.52,3.65-.166,2.248-.156,4.507-.352,6.758-.382,4.4-1.035,8.762-1.661,13.129a32.71,32.71,0,0,1-2.045,8.548,16.3,16.3,0,0,1-5.053,6.116,4.928,4.928,0,0,1-1.678,1.063,3.446,3.446,0,0,1-2.868-.619,5.681,5.681,0,0,1-1.721-7.123,12.45,12.45,0,0,1,2.893-3.161A16.95,16.95,0,0,0,569.107,244.4Z" transform="translate(-511.061 -204.538)" fill="#eacdb0"/>
        <path id="Trazado_100815" data-name="Trazado 100815" d="M514.778,317.419l-4.915,8.956.771,27.143q.178,6.255.355,12.509c.041,1.448.077,2.9.123,4.344.021.65-.159,1.744.212,2.274.8,1.151,3.746.792,5.029.893a22.115,22.115,0,0,1,5.915,1.012,18.983,18.983,0,0,0,3.767,1.339,1.117,1.117,0,0,0,.863-.141,1.255,1.255,0,0,0,.33-.92c.46-6.212.469-12.615.814-18.893.282-5.138,1-10.567.555-15.711-.007-.086-.016-.172-.031-.257-.456-2.475,0-10.648,0-10.649.019-.344,1.2-1.235,1.422-1.469l3.507-3.622c2.333-2.409,6.837-5.386,5.026-9.283a4.974,4.974,0,0,0-.912-1.267c-2.644-2.831-6.022-4.419-7.914-7.9-3.311,1.634-6.01,4.86-9.532,6.2a9.5,9.5,0,0,1-5.689.468c-1.128-.277-3.556-1.155-2.947,1.076C511.878,314.8,513.916,316.393,514.778,317.419Z" transform="translate(-473.475 -269.408)" fill="#8ec3cb"/>
        <path id="Trazado_100816" data-name="Trazado 100816" d="M456.848,334.846l4.915,8.957c-.1,0-.623,21.955-.665,23.437q-.24,8.454-.48,16.907a31.078,31.078,0,0,1-.14,4.941c-.428,2.15-2.691,1.727-4.619,1.9-4.218.38-8.659,1.1-12.889.887-1.22-.062.386-25.524.383-27.9-.008-8.546-1.771-18.027,2.57-25.777,1.263-2.255,3.49-5.87,5.948-6.983,2.29-1.037,5.569-1.214,8.056-1.8l.129,1.611Z" transform="translate(-426.238 -285.993)" fill="#8ec3cb"/>
        <g id="Grupo_53898" data-name="Grupo 53898" transform="translate(26.764 19.985)">
          <g id="Grupo_53897" data-name="Grupo 53897">
            <path id="Trazado_100817" data-name="Trazado 100817" d="M520.059,266.624a9.913,9.913,0,0,1,1.215,4.478,1.421,1.421,0,0,0,.382,1.138c.359.262.044.837.317.486a7.637,7.637,0,0,0,1.242-2.011,16.382,16.382,0,0,0,0-3.119,4.473,4.473,0,0,0-.861-2.53,5.09,5.09,0,0,0-1.276-.972,6.525,6.525,0,0,0-2.119-.951c-1.319-.246-2.129.227-.964,1.147A8.051,8.051,0,0,1,520.059,266.624Z" transform="translate(-505.546 -259.45)" fill="#3b455a"/>
            <g id="Grupo_53896" data-name="Grupo 53896" transform="translate(1.53 3.918)">
              <path id="Trazado_100818" data-name="Trazado 100818" d="M487.5,284.994c.009.638-.122,1.3.441,1.8a1.931,1.931,0,0,0,.993.39,6.154,6.154,0,0,0,2.764-.2,2.476,2.476,0,0,0,1.008-.531,1.261,1.261,0,0,0,.359-1.022c.018-.481.116-.97.179-1.458.138-1.067.2-2.143.231-3.218,1.581-.271,3.44-.782,3.98-2.438a5.426,5.426,0,0,0,.18-1.644q.025-3.441.05-6.882a6.654,6.654,0,0,0-.264-2.347,4.774,4.774,0,0,0-2.876-2.547,10.328,10.328,0,0,0-9.363.572,5.112,5.112,0,0,0-1.877,1.887,8.026,8.026,0,0,0-.475,4.27q.142,2.013.285,4.027c.109,1.544.341,3.321,1.54,4.136.636.433,1.459.512,2.007,1.073.958.978.5,2.438.784,3.624A2.346,2.346,0,0,1,487.5,284.994Z" transform="translate(-482.761 -264.046)" fill="#eacdb0"/>
            </g>
            <path id="Trazado_100819" data-name="Trazado 100819" d="M498.191,300.579c-.026-.425-.211-1.672-.851-.888a1.279,1.279,0,0,0-.219.767,2.894,2.894,0,0,1-.084.81,1.428,1.428,0,0,1-1.431.847,1.394,1.394,0,0,1-.671-.158,2.085,2.085,0,0,1-.51-.469l-1.119-1.284c-.641-.736-1.913-.418-2.777-.3a5.531,5.531,0,0,0-2.805,1.086c-.082.066-.162.136-.243.2a2.981,2.981,0,0,1-.621.448,1.917,1.917,0,0,1-2.26-.717c-.247-.321-.477-.734-.861-.788a.788.788,0,0,0-.746.454,2.253,2.253,0,0,0-.216.941,6.917,6.917,0,0,0,.6,3.458c1.114,2.279,3.267,2.559,5.431,2.508l2.566-.061a8.116,8.116,0,0,0,4.535-1.011,5.617,5.617,0,0,0,2.136-3.594A8.849,8.849,0,0,0,498.191,300.579Zm-5.722,3.23a2.994,2.994,0,0,1-2.649.307c-.39-.117-.225-.772.166-.655a2.407,2.407,0,0,0,2.165-.238C492.5,302.992,492.812,303.578,492.469,303.809Z" transform="translate(-481.23 -284.95)" fill="#3b455a"/>
            <path id="Trazado_100820" data-name="Trazado 100820" d="M494.926,254.125a12.241,12.241,0,0,0,.334-1.695,3.352,3.352,0,0,1-1.659.142q0-.495,0-.989c0-.274-3.714-.466-4.016-.491-2.823-.232-5.406-.452-7.959,1.063a7.69,7.69,0,0,0-3.914,5.743,11.758,11.758,0,0,0,1.857,7.538,16.436,16.436,0,0,1-.225-2.757,5.435,5.435,0,0,1,.593-1.74,7.17,7.17,0,0,1,2.517-2.645,13.948,13.948,0,0,1,5.5-1.853,15.06,15.06,0,0,1,5.645-.005c.836.224.975.434,1.481-.41a14.318,14.318,0,0,0,.728-1.887Z" transform="translate(-477.638 -250.926)" fill="#3b455a"/>
          </g>
        </g>
        <g id="Grupo_53900" data-name="Grupo 53900" transform="translate(0 0)">
          <g id="Grupo_53899" data-name="Grupo 53899">
            <path id="Trazado_100821" data-name="Trazado 100821" d="M402.461,225.93a4.388,4.388,0,0,0,.76-5.039l-4.644-9.186c-.869-1.72-2.381-3.715-2.619-5.585-.421-3.306.327-7.2.636-10.5.156-1.678.017-4.01.711-5.555.13-.289,2.093-2.508,2.04-2.576l-.412-.62-.614.414-.513-.1,1.4-1.689-2.02-1.48-2.7,1.07c-.144,1.816.179,3.709-.4,5.462-.244.742-.607,1.437-.914,2.155-.526,1.233-.883,2.527-1.29,3.8-.395,1.233-1.032,2.392-1.4,3.611-.829,2.719-1.639,5.445-2.458,8.167l7.122,16.319A4.488,4.488,0,0,0,402.461,225.93Z" transform="translate(-388.021 -184.009)" fill="#eacdb0"/>
          </g>
          <path id="Trazado_100822" data-name="Trazado 100822" d="M422.106,303.949A22.905,22.905,0,0,1,414.716,297q-.075-.159-.145-.315c-.179-.4-2.19-4.784-2.248-4.758l-.15.067-.435.222h-.062c-1.022.014-2.726,1.227-3.674,1.652l-7.553,3.393a1.111,1.111,0,0,0-.481.329.991.991,0,0,0-.11.674l-.672.342a14.27,14.27,0,0,1,.895,1.436,11.358,11.358,0,0,0,1.943,5.347c.069.091.144.177.217.264a47.883,47.883,0,0,0,2.045,6.009c2.332,5.16,6.761,9.167,8.988,14.373,1.808-.527,3.061-2.15,4.022-3.77a57.689,57.689,0,0,0,4.388-10.182l1.9-5.319a2.513,2.513,0,0,0,.205-.959C423.741,304.937,422.86,304.389,422.106,303.949Z" transform="translate(-395.852 -259.699)" fill="#8ec3cb"/>
        </g>
      </g>
      <g id="Grupo_53925" data-name="Grupo 53925" transform="translate(15.966 79.451)">
        <g id="Grupo_53902" data-name="Grupo 53902" transform="translate(76.046 30.292)">
          <path id="Trazado_100823" data-name="Trazado 100823" d="M390.194,388.209l2.948-2.9,4.648.11.53,2.357-7.023,3.034Z" transform="translate(-390.194 -385.307)" fill="#f7c9a9"/>
        </g>
        <path id="Trazado_100824" data-name="Trazado 100824" d="M267.7,299c-.562-6.332-3-7.485-3-7.485h0a5.59,5.59,0,0,0-2.213-1.113,6.478,6.478,0,0,0-2.112,4.418l-.182,0a5.99,5.99,0,0,1,2.214.493c.534,3.774,1.347,9.78,1.376,11.534.044,2.618.662,2.667,2.423,3.241s3.619-.9,3.619-.9A38.729,38.729,0,0,1,267.7,299Z" transform="translate(-222.971 -288.455)" fill="#3b455a"/>
        <g id="Grupo_53903" data-name="Grupo 53903" transform="translate(1.785 16.239)">
          <path id="Trazado_100825" data-name="Trazado 100825" d="M174.334,343.452l-7.64,3.009L154.2,356.811l-5.71-18.559-6.96,1.249,4.461,22.663,7.316,6.6,21.057-11.6Z" transform="translate(-141.532 -338.252)" fill="#3b455a"/>
        </g>
        <g id="Grupo_53917" data-name="Grupo 53917" transform="translate(23.017 20.343)">
          <g id="Grupo_53908" data-name="Grupo 53908" transform="translate(3.846 54.163)">
            <g id="Grupo_53905" data-name="Grupo 53905" transform="translate(0.321 59.729)">
              <g id="Grupo_53904" data-name="Grupo 53904">
                <path id="Trazado_100826" data-name="Trazado 100826" d="M226.785,735.355l-.2,2,3.623,2.49,2.114-1.75-1.71-2.244-3.622-2.49Z" transform="translate(-226.583 -733.357)" fill="#1a3151"/>
              </g>
            </g>
            <g id="Grupo_53907" data-name="Grupo 53907">
              <g id="Grupo_53906" data-name="Grupo 53906">
                <path id="Trazado_100827" data-name="Trazado 100827" d="M226.121,534.023l-.614,6.065,5.432,20.839L225.9,594.414l3.713,1.281L239.4,563l1.554-9.511-.057-20.134Z" transform="translate(-225.507 -533.358)" fill="#8ec3cb"/>
              </g>
            </g>
          </g>
          <g id="Grupo_53913" data-name="Grupo 53913" transform="translate(14.557 56.488)">
            <g id="Grupo_53910" data-name="Grupo 53910">
              <g id="Grupo_53909" data-name="Grupo 53909">
                <path id="Trazado_100828" data-name="Trazado 100828" d="M279.834,546.243l-7.81,56.112h-3.55l-.639-35.968-6.461-25.245Z" transform="translate(-261.374 -541.142)" fill="#8ec3cb"/>
              </g>
            </g>
            <g id="Grupo_53912" data-name="Grupo 53912" transform="translate(7.121 60.769)">
              <g id="Grupo_53911" data-name="Grupo 53911">
                <path id="Trazado_100829" data-name="Trazado 100829" d="M285.217,744.625v2.016l3.839,2.016,1.919-2.016-1.919-2.016Z" transform="translate(-285.217 -744.625)" fill="#3b455a"/>
              </g>
            </g>
          </g>
          <g id="Grupo_53916" data-name="Grupo 53916">
            <g id="Grupo_53915" data-name="Grupo 53915">
              <g id="Grupo_53914" data-name="Grupo 53914">
                <path id="Trazado_100830" data-name="Trazado 100830" d="M217.285,399.384c3.032-20.412,1.949-35.278,2.106-39.359a8.527,8.527,0,0,1,2.953-6.2c1.229-.281,2.3-1.09,3.536-1.41,8.383-2.161,12.956,4.4,16.094,11.47a205.931,205.931,0,0,1,9.741,26.906c2.3,8.062,4.615,16.2,5.581,24.564.4,3.452.732,6.726-2.958,8.25-5.879,2.427-12.486,2.374-18.7,3.152-7.133.894-14.276,1.547-21.456,1.853C210.438,428.768,214.253,419.8,217.285,399.384Z" transform="translate(-212.629 -351.996)" fill="#3b455a"/>
              </g>
            </g>
          </g>
        </g>
        <g id="Grupo_53918" data-name="Grupo 53918" transform="translate(0 8.566)">
          <path id="Trazado_100831" data-name="Trazado 100831" d="M138.7,321.237l-3.143-3.147,1.071-5.532h3.034l.892,4.818,1.54.925v2.326Z" transform="translate(-135.556 -312.559)" fill="#f7c9a9"/>
        </g>
        <g id="Grupo_53919" data-name="Grupo 53919" transform="translate(40.33 20.343)">
          <path id="Trazado_100832" data-name="Trazado 100832" d="M270.6,352l8.03,1.428,14.494,14.022,12.993-4.561,4.177,5.326-17.389,10.2-18.38-11.778Z" transform="translate(-270.599 -351.996)" fill="#3b455a"/>
        </g>
        <g id="Grupo_53920" data-name="Grupo 53920" transform="translate(32.659 19.987)">
          <path id="Trazado_100833" data-name="Trazado 100833" d="M254.563,351.586l1.478,21.707-11.129-20.634,3.246-1.159,2.318-.7Z" transform="translate(-244.912 -350.803)" fill="#fff"/>
        </g>
        <g id="Grupo_53922" data-name="Grupo 53922" transform="translate(31.225 5.015)">
          <g id="Grupo_53921" data-name="Grupo 53921">
            <path id="Trazado_100834" data-name="Trazado 100834" d="M251.586,303.959c-2.766-6.025-10.381-2.973-11.371,2.708-.563,3.231,1.151,8.846,5.008,8.9.194.546.528,1.577,1.048,1.845.563.29,1.925-.458,2.463-.732a.905.905,0,0,0,.39-.307,1.7,1.7,0,0,0-.068-1,5.394,5.394,0,0,0,1.223-.573,6.3,6.3,0,0,0,2.679-5.08A12.643,12.643,0,0,0,251.586,303.959Z" transform="translate(-240.11 -300.668)" fill="#f7c9a9"/>
          </g>
        </g>
        <g id="Grupo_53924" data-name="Grupo 53924" transform="translate(24.098)">
          <g id="Grupo_53923" data-name="Grupo 53923">
            <path id="Trazado_100835" data-name="Trazado 100835" d="M231.511,285.848s1.614,3.239-2.531,5.28-6.138,6.177-4.483,9.608,5.556,5.294,4.078,6.672-8,1.987-8,1.987-6.98-11.816-3.21-18.618S228.518,281.94,231.511,285.848Z" transform="translate(-216.248 -283.877)" fill="#3b455a"/>
          </g>
        </g>
      </g>
      <g id="Grupo_53943" data-name="Grupo 53943" transform="translate(144.738 58.169)">
        <g id="Grupo_53937" data-name="Grupo 53937" transform="translate(29.596)">
          <g id="Grupo_53930" data-name="Grupo 53930" transform="translate(1.362 79.98)">
            <g id="Grupo_53926" data-name="Grupo 53926" transform="translate(11.002 2.301)">
              <path id="Trazado_100836" data-name="Trazado 100836" d="M722.4,488.134l1.522,10.472-3.054,59.066-5.124-1.074-8.5-67.149Z" transform="translate(-707.248 -488.134)" fill="#3b455a"/>
            </g>
            <g id="Grupo_53927" data-name="Grupo 53927">
              <path id="Trazado_100837" data-name="Trazado 100837" d="M671.4,480.762l-.99,39.158,9.945,33.8,5.8-2.156-4.882-30.144,4.483-40.993Z" transform="translate(-670.408 -480.428)" fill="#3b455a"/>
            </g>
            <g id="Grupo_53928" data-name="Grupo 53928" transform="translate(7.468 67.972)">
              <path id="Trazado_100838" data-name="Trazado 100838" d="M703.709,708.029l-6.94,3.181,2.33,4.853-3.64,2.293s-.343,2.021.88,2.874,9.141-5.8,9.141-5.8Z" transform="translate(-695.415 -708.029)" fill="#3b455a"/>
            </g>
            <g id="Grupo_53929" data-name="Grupo 53929" transform="translate(15.159 69.12)">
              <path id="Trazado_100839" data-name="Trazado 100839" d="M732.167,711.872l-7.528,1.271.991,5.291-4.11,1.27s-.856,1.862.1,3,10.332-3.228,10.332-3.228Z" transform="translate(-721.169 -711.872)" fill="#3b455a"/>
            </g>
          </g>
          <g id="Grupo_53931" data-name="Grupo 53931" transform="translate(12.393 10.74)">
            <path id="Trazado_100840" data-name="Trazado 100840" d="M707.839,254.3a20.569,20.569,0,0,0,2.282,4.953,35.017,35.017,0,0,1,1.378-9.469.919.919,0,0,0,.012-.711.862.862,0,0,0-.578-.329C706.976,247.784,706.9,251.258,707.839,254.3Z" transform="translate(-707.344 -248.578)" fill="#3b455a"/>
          </g>
          <g id="Grupo_53935" data-name="Grupo 53935" transform="translate(2.024)">
            <g id="Grupo_53932" data-name="Grupo 53932" transform="translate(12.124 5.52)">
              <path id="Trazado_100841" data-name="Trazado 100841" d="M714.133,247.054a6.109,6.109,0,0,0,2.462,3.608,4.359,4.359,0,0,0,4.527-.263c3.963-2.4,10.833-15.62.5-18.867C712.243,228.584,712.42,241.59,714.133,247.054Z" transform="translate(-713.222 -231.102)" fill="#e0c09c"/>
            </g>
            <g id="Grupo_53933" data-name="Grupo 53933" transform="translate(21.198 6.138)">
              <path id="Trazado_100842" data-name="Trazado 100842" d="M743.6,248.561c.617.913,2.021.705,3.017.234a10.717,10.717,0,0,0,5.8-11.228c-.661-3.73-5.272-6.626-6.329-2.051-.375,1.622.564,3.905.292,5.709A26.215,26.215,0,0,1,743.6,248.561Z" transform="translate(-743.605 -233.171)" fill="#3b455a"/>
            </g>
            <g id="Grupo_53934" data-name="Grupo 53934">
              <path id="Trazado_100843" data-name="Trazado 100843" d="M683.734,213.806c-4.7,2.6-6.808,8.332-11.11,11.555a15.946,15.946,0,0,0,12.408.308c3.873-1.549,13.057-2.487,11.856-7.853C695.666,212.352,687.856,211.525,683.734,213.806Z" transform="translate(-672.624 -212.617)" fill="#3b455a"/>
            </g>
          </g>
          <g id="Grupo_53936" data-name="Grupo 53936" transform="translate(0 26.362)">
            <path id="Trazado_100844" data-name="Trazado 100844" d="M697.23,309.516c2.693,4.676,2.681,9.971,2.309,15.037-.842,11.467.25,24.762-3.7,35.724-7.463-.007-21.769-3.429-29.2-4.193-1.448-9.969-.6-15.8.212-27.086.4-5.566,1.267-13.033,3.237-18.336,1.613-4.341,5.913-9.947,12.4-9.768A19.11,19.11,0,0,1,697.23,309.516Z" transform="translate(-665.847 -300.889)" fill="#bf3976"/>
          </g>
          <path id="Trazado_100845" data-name="Trazado 100845" d="M723.646,292.566a2.081,2.081,0,0,1-2.319-.613c-.694-.672-.48-.891-.333-1.881.217-1.459.605-2.911.906-4.356l4.018.836s-.808,3.913-.869,4.18A2.576,2.576,0,0,1,723.646,292.566Z" transform="translate(-704.419 -263.885)" fill="#e0c09c"/>
        </g>
        <g id="Grupo_53940" data-name="Grupo 53940" transform="translate(52.331 7.197)">
          <g id="Grupo_53938" data-name="Grupo 53938" transform="translate(19.745)">
            <path id="Trazado_100846" data-name="Trazado 100846" d="M812.081,241.792l-.159-5.075-2.162.008-.657,3.512-1.017-.473.662,4.317,2.244.3Z" transform="translate(-808.087 -236.717)" fill="#e0c09c"/>
          </g>
          <g id="Grupo_53939" data-name="Grupo 53939" transform="translate(0 5.986)">
            <path id="Trazado_100847" data-name="Trazado 100847" d="M744.529,282.654a7.345,7.345,0,0,1-2.164-7.911,3.444,3.444,0,0,1,.795-1.347,4.076,4.076,0,0,1,3.382-.7c2.5.317,8.189,4.092,9.6,2.314,1.172-1.482,1.516-5.009,2.064-6.818l3.466-11.432,4.418.817-1.417,13.344-.921,8.673c-.228,2.148.655,6.831-1.354,7.942a3.508,3.508,0,0,1-1.752.315c-4.162-.047-8.146-1.574-12.026-3.081A14.361,14.361,0,0,1,744.529,282.654Z" transform="translate(-741.972 -256.761)" fill="#bf3976"/>
          </g>
        </g>
        <g id="Grupo_53941" data-name="Grupo 53941" transform="translate(0 35.969)">
          <path id="Trazado_100848" data-name="Trazado 100848" d="M575.4,336.148l-3.138-3.089-4.948.117-.565,2.51,7.477,3.23Z" transform="translate(-566.745 -333.059)" fill="#e0c09c"/>
        </g>
        <g id="Grupo_53942" data-name="Grupo 53942" transform="translate(4.415 26.497)">
          <path id="Trazado_100849" data-name="Trazado 100849" d="M622.622,304.567l-3.572-3.227-19.243,15.329-13.833-4.855-4.447,5.671,18.513,10.855L619.609,315.8Z" transform="translate(-581.528 -301.34)" fill="#bf3976"/>
        </g>
      </g>
      <g id="Grupo_53945" data-name="Grupo 53945" transform="translate(60.834)">
        <rect id="Rectángulo_5288" data-name="Rectángulo 5288" width="48.546" height="116.493" transform="translate(0 47.946) rotate(-80.979)" fill="#d34e4e"/>
        <g id="Grupo_53944" data-name="Grupo 53944" transform="translate(20.977 14.875)">
          <path id="Trazado_100850" data-name="Trazado 100850" d="M357.817,85.205a13.9,13.9,0,0,0,5.743,2.4c2.473.38,3.938-.443,4.177-2,.228-1.484-.772-2.506-3.477-3.971-3.746-1.986-5.988-4.573-5.456-8.037.624-4.063,4.495-6.651,10.113-5.787a14.758,14.758,0,0,1,5.893,2.136l-1.87,4.162a11.449,11.449,0,0,0-4.808-1.9c-2.332-.358-3.625.528-3.816,1.765-.234,1.519,1.006,2.4,3.9,4.036,3.966,2.2,5.608,4.7,5.092,8.053-.614,3.993-4.209,6.912-10.746,5.908a15.77,15.77,0,0,1-6.526-2.486Z" transform="translate(-356.037 -67.649)" fill="#fff"/>
          <path id="Trazado_100851" data-name="Trazado 100851" d="M424.861,95.557l-2.635,5.852-5.583-.858,10.94-22.7,7.067,1.086,3.724,24.951L432.579,103l-.9-6.4Zm6.662-3.1-.707-5.281c-.207-1.479-.359-3.311-.5-4.778l-.071-.011c-.571,1.359-1.2,3.107-1.8,4.425l-2.19,4.836Z" transform="translate(-398.543 -74.807)" fill="#fff"/>
          <path id="Trazado_100852" data-name="Trazado 100852" d="M503.717,86.931l5.406.831-2.966,19.293,9.469,1.456-.7,4.523-14.876-2.287Z" transform="translate(-457.045 -81.172)" fill="#fff"/>
          <path id="Trazado_100853" data-name="Trazado 100853" d="M576.233,112.148,567.47,110.8l-.869,5.653,9.787,1.5-.679,4.417-15.193-2.336,3.661-23.815,14.7,2.26L578.2,102.9l-9.293-1.428-.761,4.947,8.763,1.347Z" transform="translate(-499.449 -87.691)" fill="#fff"/>
        </g>
      </g>
      <g id="Grupo_53953" data-name="Grupo 53953" transform="translate(43.536 116.946)">
        <g id="Grupo_53946" data-name="Grupo 53946" transform="translate(55.064 39.096)">
          <rect id="Rectángulo_5289" data-name="Rectángulo 5289" width="31.74" height="22.154" transform="translate(0 12.707) rotate(-3.584)" fill="#d34e4e"/>
          <rect id="Rectángulo_5290" data-name="Rectángulo 5290" width="31.74" height="15.705" transform="translate(46.264 0) rotate(86.416)" fill="#f3cc30"/>
          <rect id="Rectángulo_5291" data-name="Rectángulo 5291" width="19.837" height="13.75" transform="matrix(0.063, 0.998, -0.998, 0.063, 60.667, 11.031)" fill="#7fc5a3"/>
        </g>
        <g id="Grupo_53952" data-name="Grupo 53952">
          <g id="Grupo_53951" data-name="Grupo 53951">
            <path id="Trazado_100854" data-name="Trazado 100854" d="M467.267,672.028H403.419a5.7,5.7,0,0,1-4.167-9.584l5.805-6.224a1.728,1.728,0,0,1,2.527,2.356l-5.805,6.224a2.243,2.243,0,0,0,1.64,3.772h63.849a1.728,1.728,0,0,1,0,3.455Z" transform="translate(-346.996 -582.131)" fill="#3b455a"/>
            <g id="Grupo_53948" data-name="Grupo 53948" transform="translate(51.911 89.519)">
              <g id="Grupo_53947" data-name="Grupo 53947" transform="translate(0 0)">
                <circle id="Elipse_4112" data-name="Elipse 4112" cx="7.256" cy="7.256" r="7.256" transform="translate(0 14.116) rotate(-76.575)" fill="#3b455a"/>
                <circle id="Elipse_4113" data-name="Elipse 4113" cx="3.868" cy="3.868" r="3.868" transform="translate(4.303 11.938) rotate(-80.745)" fill="#f7f7f7"/>
                <circle id="Elipse_4114" data-name="Elipse 4114" cx="2.735" cy="2.735" r="2.735" transform="translate(5.45 10.773) rotate(-76.664)" fill="#3b455a"/>
              </g>
              <path id="Trazado_100855" data-name="Trazado 100855" d="M422.548,710.443h-3.587v2.04l2.87,6.073h1.435l2.87-6.073v-2.04Z" transform="translate(-413.804 -710.065)" fill="#ccd2d9"/>
              <rect id="Rectángulo_5292" data-name="Rectángulo 5292" width="7.174" height="2.04" transform="translate(5.157 0.378)" fill="#999" opacity="0.22" style="mix-blend-mode: multiply;isolation: isolate"/>
            </g>
            <g id="Grupo_53950" data-name="Grupo 53950" transform="translate(105.115 88)">
              <g id="Grupo_53949" data-name="Grupo 53949" transform="translate(0 0)">
                <circle id="Elipse_4115" data-name="Elipse 4115" cx="7.256" cy="7.256" r="7.256" transform="translate(0 10.262) rotate(-45)" fill="#3b455a"/>
                <circle id="Elipse_4116" data-name="Elipse 4116" cx="3.868" cy="3.868" r="3.868" transform="translate(5.822 13.457) rotate(-80.745)" fill="#f7f7f7"/>
                <circle id="Elipse_4117" data-name="Elipse 4117" cx="2.735" cy="2.735" r="2.735" transform="translate(6.394 10.262) rotate(-45)" fill="#3b455a"/>
              </g>
              <path id="Trazado_100856" data-name="Trazado 100856" d="M605.788,710.443H602.2v2.04l2.87,6.073h1.435l2.87-6.073v-2.04Z" transform="translate(-595.525 -708.546)" fill="#ccd2d9"/>
              <rect id="Rectángulo_5293" data-name="Rectángulo 5293" width="7.174" height="2.04" transform="translate(6.676 1.897)" fill="#999" opacity="0.22" style="mix-blend-mode: multiply;isolation: isolate"/>
            </g>
            <path id="Trazado_100857" data-name="Trazado 100857" d="M385.009,451.418a1.729,1.729,0,0,0-1.178-.682l-93.346-11.242-3.169-11.237a9.9,9.9,0,0,0-8.39-7.213L265.286,419.4a1.728,1.728,0,1,0-.413,3.431l13.639,1.643a6.464,6.464,0,0,1,5.475,4.713l3.494,12.39,12.743,45.484a9.032,9.032,0,0,0,8.661,6.554c.037,0,.074,0,.111,0l62.507-4.037a8.979,8.979,0,0,0,8.813-7.486l5.01-29.347A1.726,1.726,0,0,0,385.009,451.418ZM380.925,458h-6.963l.466-4.912,7.188.865ZM378.2,473.975h-5.751l1.188-12.523h6.7Zm-50.664,14.977-1.31-11.522h7.425l.8,11.075Zm-8.655.559-1.931-12.081h7.538l1.323,11.633Zm-7.753.5L308.19,477.43H315.2l1.949,12.193Zm-10.915-16.037-3.532-12.523h6.013l2.92,12.523Zm4.256-12.523h8.178l2,12.523h-7.259Zm5.6-16.119L312.09,458h-8.431l-3.223-13.823Zm10.918,1.315L322.274,458H313.84l-1.99-12.449ZM362.461,458H353.94v-7.38l8.792,1.059Zm1.991-6.114,8.26.995L372.226,458h-8.036Zm-40.047,9.569h8.084l.908,12.523h-7.568Zm-.314,12.523h-7.7l-2-12.523h8.275Zm10.13-12.523H342.5l.468,12.523h-7.839Zm10.008,0h7.983v12.523H344.7Zm9.71,0h8.373l-.536,12.523H353.94ZM352.212,458H344.1l-.322-8.6,8.433,1.016Zm-9.841,0h-8.4l-.716-9.871,8.787,1.058Zm-10.133,0h-8.226l-1.266-11.136,8.761,1.055Zm3.142,19.434H343.1l.392,10.491-7.315.473Zm9.447,0h7.385v9.928l-7,.452Zm9.113,0h7.689l-.4,9.345-7.289.471Zm9.419,0h7.024l-.835,8.808-6.584.425Zm.148-3.455.536-12.523H371.9l-1.188,12.523Zm-64.9-30.022L301.884,458H295.7l-4.2-14.9Zm10.224,46.207a5.566,5.566,0,0,1-5.283-4.034l-2.436-8.7h5.3l2.96,12.695Zm62.611-4.041c-.037,0-.074,0-.111,0l-.04,0,.825-8.7h5.489l-.7,4.077A5.532,5.532,0,0,1,371.445,486.119Z" transform="translate(-252.756 -416.415)" fill="#3b455a"/>
            <path id="Trazado_100858" data-name="Trazado 100858" d="M637.071,522.5l-.42,2.535H624.142a1.864,1.864,0,0,1-1.863-1.864V519.1l13.542,1.555A1.5,1.5,0,0,1,637.071,522.5Z" transform="translate(-504.491 -486.346)" fill="#ccd2d9"/>
            <path id="Trazado_100859" data-name="Trazado 100859" d="M232.1,409.454a3.777,3.777,0,0,0-.9,7.5L249.83,419.2l.831-7.509Z" transform="translate(-227.872 -409.428)" fill="#ccd2d9"/>
            <path id="Trazado_100860" data-name="Trazado 100860" d="M256.962,417l-20.106,5.126,19.275,2.382Z" transform="translate(-234.173 -414.74)" fill="#999" opacity="0.22" style="mix-blend-mode: multiply;isolation: isolate"/>
          </g>
          <path id="Trazado_100861" data-name="Trazado 100861" d="M373.794,556.174l-.487-1.728h84.44l-.295,1.728Z" transform="translate(-329.874 -511.138)" fill="#999" opacity="0.15" style="mix-blend-mode: multiply;isolation: isolate"/>
          <path id="Trazado_100862" data-name="Trazado 100862" d="M388.5,609.678l-.487-1.728h77.319l-.295,1.728Z" transform="translate(-340.186 -548.663)" fill="#999" opacity="0.15" style="mix-blend-mode: multiply;isolation: isolate"/>
        </g>
      </g>
      <g id="Grupo_53957" data-name="Grupo 53957" transform="translate(205.719 78.403)">
        <g id="Grupo_53954" data-name="Grupo 53954" transform="translate(0 22.75)">
          <path id="Trazado_100863" data-name="Trazado 100863" d="M778.7,369.832l-2.086-1.129-.565-2.014-.488-.1-.144.6-.948-1.537-1.388-.47L771.5,366.32l-.567,1.934,1.3,1.452,2.2.723,2.789,1.669Z" transform="translate(-770.937 -362.603)" fill="#dd957c"/>
          <path id="Trazado_100864" data-name="Trazado 100864" d="M787.728,361.451l12.284,8.586,12.567-13.489,1.5,15.3-12.247,8.056L785.489,365.5Z" transform="translate(-781.143 -356.548)" fill="#7fc5a3"/>
        </g>
        <g id="Grupo_53955" data-name="Grupo 53955" transform="translate(35.405 75.832)">
          <path id="Trazado_100865" data-name="Trazado 100865" d="M927.79,743.224,928,745.29l-3.753,2.576-2.19-1.811,1.772-2.321,3.753-2.576Z" transform="translate(-912.33 -679.378)" fill="#3b455a"/>
          <path id="Trazado_100866" data-name="Trazado 100866" d="M904.855,534.979l.636,6.274-5.628,21.555,5.226,34.637-3.847,1.325L891.1,564.953l-1.61-9.837.059-20.826Z" transform="translate(-889.489 -534.29)" fill="#474ebb"/>
        </g>
        <g id="Grupo_53956" data-name="Grupo 53956" transform="translate(21.185 78.236)">
          <path id="Trazado_100867" data-name="Trazado 100867" d="M841.875,547.618l8.091,58.039h3.678l.662-37.2L861,542.342Z" transform="translate(-841.875 -542.342)" fill="#474ebb"/>
          <path id="Trazado_100868" data-name="Trazado 100868" d="M867.2,752.813V754.9l-3.977,2.085-1.989-2.085,1.989-2.085Z" transform="translate(-855.454 -689.957)" fill="#3b455a"/>
        </g>
        <path id="Trazado_100869" data-name="Trazado 100869" d="M828.815,355.418a3.31,3.31,0,0,1,1.214-1.183c3.654-2.062,9.711-.246,13.675-.246,1.172,12.336,4.411,24.094,6.5,36.207q3.333,19.3,7.5,38.436c.158.722-11.034.358-12.09.376-10.767.182-24.861.145-35.251-3.111,6.63-17.8,9.051-36.952,14.272-55.215.917-3.206,2.005-6.364,2.831-9.6C827.953,359.21,827.879,356.949,828.815,355.418Z" transform="translate(-798.594 -331.485)" fill="#7fc5a3"/>
        <path id="Trazado_100870" data-name="Trazado 100870" d="M871.578,289.541a7.259,7.259,0,0,0-5.17,6.077,6.388,6.388,0,0,1,1.406-10.342,7.4,7.4,0,0,1,3.561,4.312Z" transform="translate(-836.472 -283.812)" fill="#3b455a"/>
        <path id="Trazado_100871" data-name="Trazado 100871" d="M869.059,299.76c1.408-7.435,10.7-6.15,13.362-.13,1.516,3.424-.072,8.271-3.1,10.653-.065.658-.151,2.474-.654,2.914-.545.477-2.262.022-2.934-.133a1.037,1.037,0,0,1-.517-.232,1.937,1.937,0,0,1-.2-1.127,6.2,6.2,0,0,1-1.515-.3,7.2,7.2,0,0,1-4.372-4.89A14.405,14.405,0,0,1,869.059,299.76Z" transform="translate(-839.496 -290.379)" fill="#dd957c"/>
        <path id="Trazado_100872" data-name="Trazado 100872" d="M886.764,319.265a2.021,2.021,0,0,1-.212-.021c-1.639-.281-4.268-.81-5.029-2.537-.779-1.769.606-4.978.834-6.817.347-2.794.463-5.613.6-8.423a12.832,12.832,0,0,0-2.11-7.194,40.345,40.345,0,0,0-4.767-5.917,6.008,6.008,0,0,1-1.662-2.647,3.915,3.915,0,0,1,.97-3.239,5.487,5.487,0,0,1,4.285-2.1c6.144-.147,10.763,3.488,12.506,9.488,2.5,8.6-.622,16.8-.158,25.358a8.175,8.175,0,0,0,1.381,4.11C893.182,319.009,888.089,319.341,886.764,319.265Z" transform="translate(-843.467 -280.371)" fill="#3b455a"/>
      </g>
      <g id="Grupo_53967" data-name="Grupo 53967" transform="translate(183.733 93.596)">
        <g id="Grupo_53959" data-name="Grupo 53959" transform="translate(0 0)">
          <g id="Grupo_53958" data-name="Grupo 53958">
            <circle id="Elipse_4118" data-name="Elipse 4118" cx="23.931" cy="23.931" r="23.931" transform="translate(0 33.843) rotate(-45)" fill="#f6d738"/>
          </g>
        </g>
        <g id="Grupo_53961" data-name="Grupo 53961" transform="translate(5.121 5.121)">
          <g id="Grupo_53960" data-name="Grupo 53960" transform="translate(0 0)">
            <circle id="Elipse_4119" data-name="Elipse 4119" cx="20.31" cy="20.31" r="20.31" transform="translate(0 28.722) rotate(-45)" fill="#f3cc30"/>
          </g>
        </g>
        <g id="Grupo_53963" data-name="Grupo 53963" transform="translate(17.503 15.832)">
          <g id="Grupo_53962" data-name="Grupo 53962">
            <path id="Trazado_100873" data-name="Trazado 100873" d="M781.7,384.256a20.313,20.313,0,0,1-25.773,30.056A20.311,20.311,0,1,0,781.7,384.256Z" transform="translate(-755.925 -384.256)" fill="#edbd31"/>
          </g>
        </g>
        <g id="Grupo_53965" data-name="Grupo 53965" transform="translate(15.747 15.79)">
          <g id="Grupo_53964" data-name="Grupo 53964">
            <path id="Trazado_100874" data-name="Trazado 100874" d="M751.552,405.152a17.928,17.928,0,0,1,31.33-13.07,17.93,17.93,0,1,0-28.351,21.825A17.845,17.845,0,0,1,751.552,405.152Z" transform="translate(-750.045 -384.116)" fill="#f7db5e"/>
          </g>
        </g>
        <g id="Grupo_53966" data-name="Grupo 53966" transform="translate(27.572 20.652)">
          <path id="Trazado_100875" data-name="Trazado 100875" d="M796.7,400.394l.174,2.581a5.444,5.444,0,0,1,2.611.856,7.885,7.885,0,0,1,2.045,2.257L799.06,407.7a3.444,3.444,0,0,0-3.172-1.9,2.78,2.78,0,0,0-1.877.815,2.21,2.21,0,0,0-.648,1.764,2.113,2.113,0,0,0,.724,1.513,8.992,8.992,0,0,0,2.547,1.27,24.667,24.667,0,0,1,2.726,1.185,7.055,7.055,0,0,1,1.651,1.126,5.528,5.528,0,0,1,1.751,3.785,6.234,6.234,0,0,1-1.077,4.042,6.516,6.516,0,0,1-3.4,2.532l.184,2.726-2.305.156-.179-2.647a7.021,7.021,0,0,1-4.058-1.512,8.511,8.511,0,0,1-2.285-4.053l2.857-.8a6.793,6.793,0,0,0,1.642,2.76,3.409,3.409,0,0,0,2.439.656,3.371,3.371,0,0,0,2.36-1.1,3.162,3.162,0,0,0,.8-2.449,2.811,2.811,0,0,0-.945-2.04,7.479,7.479,0,0,0-1.263-.781,20.755,20.755,0,0,0-2.106-.909,9.87,9.87,0,0,1-3.5-1.881,5.286,5.286,0,0,1-1.326-5.137,4.832,4.832,0,0,1,.776-1.541,5.455,5.455,0,0,1,1.338-1.248,7.627,7.627,0,0,1,1.858-.893l-.174-2.582Z" transform="translate(-789.641 -400.394)" fill="#d49a34"/>
        </g>
      </g>
      <g id="Grupo_53968" data-name="Grupo 53968" transform="translate(236.7 104.44)">
        <path id="Trazado_100876" data-name="Trazado 100876" d="M882.9,448.46l-2.471.808L878.4,448.2l-.445.315.365.563-1.937-.405-1.421.75-.287,2.118,1.111,1.909,2.133.063,2.234-1.205,3.43-.96Z" transform="translate(-874.674 -424.115)" fill="#dd957c"/>
        <path id="Trazado_100877" data-name="Trazado 100877" d="M905.559,389.229a3.956,3.956,0,0,0,1.85-3.178,17.337,17.337,0,0,0-.467-4.045,33.265,33.265,0,0,1,.288-12.874c.929-4.2,5.825,1.08,6.434,2.974.675,2.1.485,4.384.649,6.554q.331,4.37.313,8.757c-.007,1.849.448,6.215-1.5,7.272a5.348,5.348,0,0,1-1.722.482c-.929.151-12.018,1.549-12.192,1l-1.532-4.833C899.989,390.867,903.445,390.659,905.559,389.229Z" transform="translate(-890.811 -367.552)" fill="#7fc5a3"/>
      </g>
      <g id="Grupo_53976" data-name="Grupo 53976" transform="translate(242.709 123.788)">
        <g id="Grupo_53975" data-name="Grupo 53975">
          <g id="Grupo_53969" data-name="Grupo 53969" transform="translate(3.484)">
            <path id="Trazado_100878" data-name="Trazado 100878" d="M921.6,444.852a.351.351,0,0,1-.465-.177l-4.405-8.374c-1.472-2.8-4.655-4.009-7.1-2.7s-3.229,4.652-1.757,7.451l4.405,8.374a.359.359,0,0,1-.115.488.351.351,0,0,1-.465-.177l-4.405-8.374c-1.665-3.165-.773-6.945,1.988-8.427s6.361-.112,8.026,3.052l4.405,8.374A.359.359,0,0,1,921.6,444.852Z" transform="translate(-906.46 -432.339)" fill="#3b455a"/>
          </g>
          <path id="Trazado_100879" data-name="Trazado 100879" d="M984.1,479l-2.025-1.025-12.248-27.6,1.246.184,1.667-.43Z" transform="translate(-947.421 -444.817)" fill="#ccd2d9"/>
          <path id="Trazado_100880" data-name="Trazado 100880" d="M974,450.56l10.2,21.579-8.535-22.008Z" transform="translate(-950.348 -444.817)" fill="#bdc3c9"/>
          <path id="Trazado_100881" data-name="Trazado 100881" d="M894.793,462.961l22.427-12.037,12.79,27.387L906.81,490.3Z" transform="translate(-894.793 -445.373)" fill="#b9bec4"/>
          <path id="Trazado_100882" data-name="Trazado 100882" d="M944.961,476.29l-23.3,13.515-14.431-28.02,21.626-11.644Z" transform="translate(-903.514 -444.824)" fill="#ccd2d9"/>
          <path id="Trazado_100883" data-name="Trazado 100883" d="M912.937,517.151l-6.127-.057-12.017-27.337,2.015-.539,1.7-.088Z" transform="translate(-894.793 -472.17)" fill="#d5c477"/>
          <path id="Trazado_100884" data-name="Trazado 100884" d="M901.541,489.091l11.982,24.577,4.165,3.346-14.461-28.065Z" transform="translate(-899.526 -472.043)" fill="#c4b56b"/>
          <path id="Trazado_100885" data-name="Trazado 100885" d="M935.035,575.027l1.979-3.307,4.165,3.346Z" transform="translate(-923.017 -530.094)" fill="#b9ab65"/>
          <g id="Grupo_53971" data-name="Grupo 53971" transform="translate(10.355 16.745)">
            <path id="Trazado_100886" data-name="Trazado 100886" d="M930.724,488.833a.7.7,0,0,0-.93-.354.717.717,0,0,0-.23.976.7.7,0,0,0,.93.354A.716.716,0,0,0,930.724,488.833Z" transform="translate(-929.467 -488.41)" fill="#4e4e4e"/>
            <g id="Grupo_53970" data-name="Grupo 53970" transform="translate(0.29 0.315)">
              <path id="Trazado_100887" data-name="Trazado 100887" d="M931.157,489.706a.4.4,0,0,0-.531-.2.41.41,0,0,0-.132.558.4.4,0,0,0,.531.2A.41.41,0,0,0,931.157,489.706Z" transform="translate(-930.439 -489.464)" fill="#e1deba"/>
            </g>
          </g>
          <g id="Grupo_53973" data-name="Grupo 53973" transform="translate(19.794 11.68)">
            <path id="Trazado_100888" data-name="Trazado 100888" d="M962.328,471.87a.7.7,0,0,0-.93-.354.716.716,0,0,0-.23.976.7.7,0,0,0,.93.354A.717.717,0,0,0,962.328,471.87Z" transform="translate(-961.071 -471.447)" fill="#1a3151"/>
            <g id="Grupo_53972" data-name="Grupo 53972" transform="translate(0.29 0.315)">
              <path id="Trazado_100889" data-name="Trazado 100889" d="M962.762,472.743a.4.4,0,0,0-.531-.2.409.409,0,0,0-.131.558.4.4,0,0,0,.531.2A.409.409,0,0,0,962.762,472.743Z" transform="translate(-962.043 -472.501)" fill="#e1deba"/>
            </g>
          </g>
          <g id="Grupo_53974" data-name="Grupo 53974" transform="translate(5.47 0.175)">
            <path id="Trazado_100890" data-name="Trazado 100890" d="M928.249,445.437a.351.351,0,0,1-.465-.177l-4.405-8.374c-1.472-2.8-4.655-4.009-7.1-2.7s-3.229,4.653-1.757,7.451l4.405,8.374a.358.358,0,0,1-.115.488.352.352,0,0,1-.465-.177l-4.4-8.374c-1.665-3.165-.773-6.945,1.987-8.427s6.361-.112,8.026,3.053l4.405,8.374A.358.358,0,0,1,928.249,445.437Z" transform="translate(-913.108 -432.924)" fill="#3b455a"/>
          </g>
        </g>
      </g>
      <g id="Grupo_53984" data-name="Grupo 53984" transform="translate(236 122.715)">
        <g id="Grupo_53983" data-name="Grupo 53983">
          <g id="Grupo_53977" data-name="Grupo 53977" transform="translate(9.118)">
            <path id="Trazado_100891" data-name="Trazado 100891" d="M920.518,447.008a.459.459,0,0,1-.542-.358l-2.351-11.372a7,7,0,1,0-13.7,2.858l2.351,11.371a.458.458,0,1,1-.9.187l-2.351-11.371a7.914,7.914,0,1,1,15.494-3.232l2.351,11.372A.461.461,0,0,1,920.518,447.008Z" transform="translate(-902.862 -428.747)" fill="#3b455a"/>
          </g>
          <path id="Trazado_100892" data-name="Trazado 100892" d="M995.44,504.792l-2.256-1.863-4.742-36.76,1.574.614,2.386.016Z" transform="translate(-953.766 -454.993)" fill="#ccd2d9"/>
          <path id="Trazado_100893" data-name="Trazado 100893" d="M993.712,468.223l4.536,28.938-2.15-28.922Z" transform="translate(-957.462 -456.434)" fill="#bdc3c9"/>
          <path id="Trazado_100894" data-name="Trazado 100894" d="M872.33,473.389l34.7-7.239,5.549,36.678-35.705,6.933Z" transform="translate(-872.33 -454.98)" fill="#b9bec4"/>
          <path id="Trazado_100895" data-name="Trazado 100895" d="M933.6,504.559l-36.476,8.722-7.458-37.951,33.478-7.024Z" transform="translate(-884.49 -456.492)" fill="#ccd2d9"/>
          <path id="Trazado_100896" data-name="Trazado 100896" d="M884.966,528.759l-8.091-2.008L872.33,490.38l2.893,0,2.285.433Z" transform="translate(-872.33 -471.97)" fill="#c5cad1"/>
          <path id="Trazado_100897" data-name="Trazado 100897" d="M882.016,490.376l5.647,33.073,4.124,5.3-7.479-38.014Z" transform="translate(-879.123 -471.97)" fill="#c1c6cc"/>
          <path id="Trazado_100898" data-name="Trazado 100898" d="M887.544,604.434l4-3.314,4.124,5.3Z" transform="translate(-883 -549.642)" fill="#b9bec4"/>
          <g id="Grupo_53979" data-name="Grupo 53979" transform="translate(13.737 20.852)">
            <path id="Trazado_100899" data-name="Trazado 100899" d="M920.142,499.3a.917.917,0,1,0-.711,1.09A.917.917,0,0,0,920.142,499.3Z" transform="translate(-918.328 -498.569)" fill="#3b455a"/>
            <g id="Grupo_53978" data-name="Grupo 53978" transform="translate(0.393 0.395)">
              <path id="Trazado_100900" data-name="Trazado 100900" d="M920.68,500.313a.524.524,0,1,0-.406.623A.524.524,0,0,0,920.68,500.313Z" transform="translate(-919.644 -499.893)" fill="#b9bec4"/>
            </g>
          </g>
          <g id="Grupo_53981" data-name="Grupo 53981" transform="translate(28.342 17.806)">
            <path id="Trazado_100901" data-name="Trazado 100901" d="M969.046,489.1a.917.917,0,1,0-.711,1.09A.918.918,0,0,0,969.046,489.1Z" transform="translate(-967.232 -488.368)" fill="#3b455a"/>
            <g id="Grupo_53980" data-name="Grupo 53980" transform="translate(0.393 0.395)">
              <path id="Trazado_100902" data-name="Trazado 100902" d="M969.584,490.112a.524.524,0,1,0-.406.623A.524.524,0,0,0,969.584,490.112Z" transform="translate(-968.547 -489.692)" fill="#b9bec4"/>
            </g>
          </g>
          <g id="Grupo_53982" data-name="Grupo 53982" transform="translate(11.674 0.837)">
            <path id="Trazado_100903" data-name="Trazado 100903" d="M929.077,449.81a.459.459,0,0,1-.542-.358l-2.351-11.371a7,7,0,1,0-13.7,2.857l2.351,11.372a.458.458,0,1,1-.9.187l-2.351-11.371a7.914,7.914,0,1,1,15.494-3.232l2.351,11.371A.461.461,0,0,1,929.077,449.81Z" transform="translate(-911.421 -431.549)" fill="#3b455a"/>
          </g>
        </g>
      </g>
      <path id="Trazado_100904" data-name="Trazado 100904" d="M911.733,442.717c-.331-.417-.687-.821-1.035-1.23a.956.956,0,0,1-.235-.558q-.306-.177-.612-.356c-1.224-.72-2.358-1.609-3.632-2.238a4.708,4.708,0,0,1-.658.538c-2.115,1.429-5.57,1.637-7.877,2.11l1.532,4.833c.174.548,11.263-.851,12.192-1a7.969,7.969,0,0,0,1.187-.257A15.159,15.159,0,0,1,911.733,442.717Z" transform="translate(-654.111 -312.756)" fill="#7fc5a3"/>
      <g id="Grupo_53992" data-name="Grupo 53992" transform="translate(127.491 92.898)">
        <g id="Grupo_53991" data-name="Grupo 53991">
          <g id="Grupo_53985" data-name="Grupo 53985" transform="translate(11.814)">
            <path id="Trazado_100905" data-name="Trazado 100905" d="M562.156,346.432a.417.417,0,0,1-.406-.409l-.086-10.075a6.367,6.367,0,0,0-6.2-6.24,5.916,5.916,0,0,0-6.1,5.97l.086,10.075a.387.387,0,0,1-.4.391.417.417,0,0,1-.407-.409l-.085-10.075a6.69,6.69,0,0,1,6.9-6.753,7.2,7.2,0,0,1,7.017,7.058l.086,10.075A.387.387,0,0,1,562.156,346.432Z" transform="translate(-548.552 -328.905)" fill="#3b455a"/>
          </g>
          <path id="Trazado_100906" data-name="Trazado 100906" d="M615.277,406.746l-1.628-2.017,2.189-32.009,1.253.827,2.056.482Z" transform="translate(-582.394 -359.635)" fill="#ccd2d9"/>
          <path id="Trazado_100907" data-name="Trazado 100907" d="M622.755,375.49l-1.03,25.355,3.086-24.873Z" transform="translate(-588.058 -361.578)" fill="#bdc3c9"/>
          <path id="Trazado_100908" data-name="Trazado 100908" d="M511.3,370.429l31.172.685-1.479,32.1-31.984-1.14Z" transform="translate(-509.003 -358.028)" fill="#b9bec4"/>
          <path id="Trazado_100909" data-name="Trazado 100909" d="M564.183,408.37l-32.955.221.049-33.548,30.079.626Z" transform="translate(-524.588 -361.264)" fill="#ccd2d9"/>
          <path id="Trazado_100910" data-name="Trazado 100910" d="M515.643,405.355l-6.636-3.284,2.292-31.642,2.5.564,1.9.814Z" transform="translate(-509.003 -358.028)" fill="#c5cad1"/>
          <path id="Trazado_100911" data-name="Trazado 100911" d="M523.21,372.317l-.779,29.069,2.651,5.294.042-33.6Z" transform="translate(-518.418 -359.352)" fill="#c1c6cc"/>
          <path id="Trazado_100912" data-name="Trazado 100912" d="M508.994,471.67l4.013-2.018,2.651,5.294Z" transform="translate(-508.994 -427.619)" fill="#b9bec4"/>
          <g id="Grupo_53987" data-name="Grupo 53987" transform="translate(13.555 17.319)">
            <path id="Trazado_100913" data-name="Trazado 100913" d="M556,387.716a.833.833,0,0,0-.813-.818.774.774,0,0,0-.8.782.833.833,0,0,0,.813.818A.774.774,0,0,0,556,387.716Z" transform="translate(-554.384 -386.898)" fill="#3b455a"/>
            <g id="Grupo_53986" data-name="Grupo 53986" transform="translate(0.346 0.343)">
              <path id="Trazado_100914" data-name="Trazado 100914" d="M556.462,388.514a.476.476,0,0,0-.465-.467.442.442,0,0,0-.457.447.476.476,0,0,0,.464.467A.442.442,0,0,0,556.462,388.514Z" transform="translate(-555.541 -388.047)" fill="#b9bec4"/>
            </g>
          </g>
          <g id="Grupo_53989" data-name="Grupo 53989" transform="translate(26.674 17.608)">
            <path id="Trazado_100915" data-name="Trazado 100915" d="M599.924,388.681a.833.833,0,0,0-.813-.818.774.774,0,0,0-.8.782.833.833,0,0,0,.813.818A.774.774,0,0,0,599.924,388.681Z" transform="translate(-598.312 -387.863)" fill="#3b455a"/>
            <g id="Grupo_53988" data-name="Grupo 53988" transform="translate(0.346 0.343)">
              <path id="Trazado_100916" data-name="Trazado 100916" d="M600.39,389.479a.476.476,0,0,0-.465-.467.442.442,0,0,0-.457.447.476.476,0,0,0,.464.467A.442.442,0,0,0,600.39,389.479Z" transform="translate(-599.469 -389.012)" fill="#b9bec4"/>
            </g>
          </g>
          <g id="Grupo_53990" data-name="Grupo 53990" transform="translate(13.876 1.209)">
            <path id="Trazado_100917" data-name="Trazado 100917" d="M569.06,350.479a.417.417,0,0,1-.406-.409l-.086-10.075a6.367,6.367,0,0,0-6.2-6.241,5.915,5.915,0,0,0-6.1,5.971l.086,10.075a.387.387,0,0,1-.4.391.417.417,0,0,1-.406-.409l-.086-10.075a6.691,6.691,0,0,1,6.9-6.753,7.2,7.2,0,0,1,7.018,7.058l.086,10.075A.387.387,0,0,1,569.06,350.479Z" transform="translate(-555.456 -332.952)" fill="#3b455a"/>
          </g>
        </g>
      </g>
      <g id="Grupo_54000" data-name="Grupo 54000" transform="translate(0.052 110.682)">
        <g id="Grupo_53999" data-name="Grupo 53999">
          <g id="Grupo_53993" data-name="Grupo 53993" transform="translate(18.159)">
            <path id="Trazado_100918" data-name="Trazado 100918" d="M156.089,408.514a.434.434,0,0,1-.3-.519l2.35-10.568A6.621,6.621,0,0,0,153.6,389.5a6.137,6.137,0,0,0-7.387,4.88l-2.35,10.568a.4.4,0,0,1-.484.32.433.433,0,0,1-.3-.519l2.35-10.568a6.941,6.941,0,0,1,8.355-5.519,7.489,7.489,0,0,1,5.133,8.967l-2.35,10.568A.4.4,0,0,1,156.089,408.514Z" transform="translate(-143.074 -388.456)" fill="#3b455a"/>
          </g>
          <path id="Trazado_100919" data-name="Trazado 100919" d="M184.5,481.589l-1.1-2.478,9.864-33.021,1.021,1.148,1.887.966Z" transform="translate(-153.201 -428.878)" fill="#ccd2d9"/>
          <path id="Trazado_100920" data-name="Trazado 100920" d="M203.112,449.934l-7.128,26.315L205,450.9Z" transform="translate(-162.024 -431.574)" fill="#bdc3c9"/>
          <path id="Trazado_100921" data-name="Trazado 100921" d="M92.165,420.248l30.209,7.723-9.193,33.273-30.891-8.382Z" transform="translate(-82.284 -410.753)" fill="#b9bec4"/>
          <path id="Trazado_100922" data-name="Trazado 100922" d="M133.451,470.675,101.286,463.5l8.15-35.113,29.158,7.417Z" transform="translate(-95.607 -416.461)" fill="#ccd2d9"/>
          <path id="Trazado_100923" data-name="Trazado 100923" d="M87.963,457.792l-5.673-4.93,9.875-32.614,2.3,1.151,1.652,1.279Z" transform="translate(-82.284 -410.753)" fill="#c5cad1"/>
          <path id="Trazado_100924" data-name="Trazado 100924" d="M104.775,424.1,97,454.364l1.3,6.138,8.157-35.175Z" transform="translate(-92.598 -413.458)" fill="#c1c6cc"/>
          <path id="Trazado_100925" data-name="Trazado 100925" d="M82.27,526.638l4.4-1.211,1.3,6.138Z" transform="translate(-82.27 -484.521)" fill="#b9bec4"/>
          <g id="Grupo_53995" data-name="Grupo 53995" transform="translate(19.454 17.331)">
            <path id="Trazado_100926" data-name="Trazado 100926" d="M148.995,447.552a.867.867,0,0,0-.595-1.039.8.8,0,0,0-.968.639.867.867,0,0,0,.595,1.039A.8.8,0,0,0,148.995,447.552Z" transform="translate(-147.41 -446.489)" fill="#3b455a"/>
            <g id="Grupo_53994" data-name="Grupo 53994" transform="translate(0.344 0.37)">
              <path id="Trazado_100927" data-name="Trazado 100927" d="M149.468,448.334a.5.5,0,0,0-.34-.594.459.459,0,0,0-.553.366.5.5,0,0,0,.34.594A.459.459,0,0,0,149.468,448.334Z" transform="translate(-148.563 -447.727)" fill="#b9bec4"/>
            </g>
          </g>
          <g id="Grupo_53997" data-name="Grupo 53997" transform="translate(32.167 20.582)">
            <path id="Trazado_100928" data-name="Trazado 100928" d="M191.565,458.436a.867.867,0,0,0-.595-1.039.8.8,0,0,0-.968.639.867.867,0,0,0,.595,1.039A.8.8,0,0,0,191.565,458.436Z" transform="translate(-189.981 -457.373)" fill="#3b455a"/>
            <g id="Grupo_53996" data-name="Grupo 53996" transform="translate(0.344 0.37)">
              <path id="Trazado_100929" data-name="Trazado 100929" d="M192.039,459.218a.5.5,0,0,0-.34-.594.459.459,0,0,0-.553.366.5.5,0,0,0,.34.594A.459.459,0,0,0,192.039,459.218Z" transform="translate(-191.134 -458.611)" fill="#b9bec4"/>
            </g>
          </g>
          <g id="Grupo_53998" data-name="Grupo 53998" transform="translate(19.876 1.729)">
            <path id="Trazado_100930" data-name="Trazado 100930" d="M161.838,414.3a.433.433,0,0,1-.3-.519l2.35-10.568a6.621,6.621,0,0,0-4.539-7.928,6.137,6.137,0,0,0-7.387,4.88l-2.35,10.568a.4.4,0,0,1-.484.32.433.433,0,0,1-.3-.519l2.35-10.568a6.941,6.941,0,0,1,8.355-5.519,7.489,7.489,0,0,1,5.133,8.967l-2.35,10.568A.4.4,0,0,1,161.838,414.3Z" transform="translate(-148.824 -394.245)" fill="#3b455a"/>
          </g>
        </g>
      </g>
      <g id="Grupo_54001" data-name="Grupo 54001" transform="translate(17.751 95.689)">
        <path id="Trazado_100931" data-name="Trazado 100931" d="M150.961,361.252a46.61,46.61,0,0,0,2.908-4.706.952.952,0,0,1,.176-.245l-5.554-18.05-6.96,1.249,4.461,22.663,2.958,2.67A36.781,36.781,0,0,1,150.961,361.252Z" transform="translate(-141.532 -338.252)" fill="#3b455a"/>
      </g>
      <g id="Grupo_54012" data-name="Grupo 54012" transform="translate(0 44.332)">
        <g id="Grupo_54002" data-name="Grupo 54002">
          <path id="Trazado_100932" data-name="Trazado 100932" d="M147.134,204.132,93.3,217.85a2.106,2.106,0,0,1-2.549-1.526l-8.587-33.7a2.107,2.107,0,0,1,1.508-2.559l53.838-13.718a2.107,2.107,0,0,1,2.549,1.525l8.587,33.7A2.107,2.107,0,0,1,147.134,204.132Z" transform="translate(-82.095 -166.284)" fill="#8ec3cb"/>
        </g>
        <g id="Grupo_54003" data-name="Grupo 54003" transform="translate(5.788 23.988)">
          <rect id="Rectángulo_5294" data-name="Rectángulo 5294" width="10.451" height="7.828" rx="0.939" transform="matrix(0.969, -0.247, 0.247, 0.969, 0, 2.581)" fill="#babcbe"/>
        </g>
        <g id="Grupo_54004" data-name="Grupo 54004" transform="translate(7.986 27.113)" opacity="0.2" style="mix-blend-mode: multiply;isolation: isolate">
          <path id="Trazado_100933" data-name="Trazado 100933" d="M118.352,260.169l-.79-3.1c-1.864,3-6.088,5.3-8.725,6.521a1.388,1.388,0,0,0,1.086.176l7.423-1.891A1.4,1.4,0,0,0,118.352,260.169Z" transform="translate(-108.837 -257.069)" fill="#999"/>
        </g>
        <g id="Grupo_54009" data-name="Grupo 54009" transform="translate(8.374 23.753)">
          <g id="Grupo_54005" data-name="Grupo 54005" transform="translate(0 9.983)">
            <rect id="Rectángulo_5295" data-name="Rectángulo 5295" width="12.082" height="3.864" transform="matrix(0.969, -0.247, 0.247, 0.969, 0, 2.983)" fill="#fff"/>
          </g>
          <g id="Grupo_54006" data-name="Grupo 54006" transform="translate(13.059 6.655)">
            <rect id="Rectángulo_5296" data-name="Rectángulo 5296" width="12.082" height="3.864" transform="translate(0 2.983) rotate(-14.295)" fill="#fff"/>
          </g>
          <g id="Grupo_54007" data-name="Grupo 54007" transform="translate(26.119 3.328)">
            <rect id="Rectángulo_5297" data-name="Rectángulo 5297" width="12.082" height="3.864" transform="translate(0 2.983) rotate(-14.295)" fill="#fff"/>
          </g>
          <g id="Grupo_54008" data-name="Grupo 54008" transform="translate(39.178 0)">
            <rect id="Rectángulo_5298" data-name="Rectángulo 5298" width="12.082" height="3.864" transform="translate(0 2.983) rotate(-14.295)" fill="#fff"/>
          </g>
        </g>
        <g id="Grupo_54010" data-name="Grupo 54010" transform="translate(4.52 11.001)">
          <path id="Trazado_100934" data-name="Trazado 100934" d="M100.925,230.8a1.689,1.689,0,0,1-1.028.767,1.667,1.667,0,1,1,.446-3.05l.086.048.313-.495-.087-.056a2.267,2.267,0,1,0,.788,3.072l.051-.092-.516-.274Z" transform="translate(-97.23 -220.352)" fill="#f3f3f3"/>
          <path id="Trazado_100935" data-name="Trazado 100935" d="M112.651,226.071a1.275,1.275,0,0,0-1.546-.925l-1.318.336,1.092,4.286.579-.148L111,227.806l.627-.16,1.36,1.585.651-.166-1.441-1.671A1.285,1.285,0,0,0,112.651,226.071Zm-.579.148a.673.673,0,0,1-.486.817l-.738.188-.333-1.308.738-.188A.684.684,0,0,1,112.072,226.218Z" transform="translate(-106.037 -218.54)" fill="#f3f3f3"/>
          <path id="Trazado_100936" data-name="Trazado 100936" d="M120.861,226.747l2.267-.578-.148-.582-1.672.426-.407-1.6,1.461-.372-.148-.582-1.461.372-.24-.943,1.672-.426-.148-.582-2.267.578Z" transform="translate(-113.038 -216.281)" fill="#f3f3f3"/>
          <path id="Trazado_100937" data-name="Trazado 100937" d="M130.053,220.379l-1.009.257,1.092,4.285,1.009-.257a2.212,2.212,0,1,0-1.092-4.285Zm.944,3.7-.43.11-.8-3.122.43-.11a1.487,1.487,0,0,1,2.01,1.138A1.511,1.511,0,0,1,131,224.082Z" transform="translate(-119.543 -215.16)" fill="#f3f3f3"/>
          <rect id="Rectángulo_5299" data-name="Rectángulo 5299" width="0.598" height="4.422" transform="translate(13.153 4.545) rotate(-14.295)" fill="#f3f3f3"/>
          <path id="Trazado_100938" data-name="Trazado 100938" d="M144.137,216.61l1.066-.272.944,3.7.579-.148-.944-3.7,1.06-.27-.148-.582-2.705.689Z" transform="translate(-130.025 -211.69)" fill="#f3f3f3"/>
          <path id="Trazado_100939" data-name="Trazado 100939" d="M163.871,214.7l-.052.079a1.691,1.691,0,0,1-1.028.767,1.667,1.667,0,1,1,.446-3.05l.085.048.313-.495-.087-.056a2.267,2.267,0,1,0,.788,3.072l.051-.092Z" transform="translate(-141.342 -209.112)" fill="#f3f3f3"/>
          <path id="Trazado_100940" data-name="Trazado 100940" d="M175.825,208.826l-.951,4.806.644-.164.28-1.434,1.815-.463.937,1.124.639-.163-3.13-3.766Zm1.361,2.234-1.257.32.294-1.483Z" transform="translate(-151.686 -207.08)" fill="#f3f3f3"/>
          <path id="Trazado_100941" data-name="Trazado 100941" d="M189.3,206.541a1.276,1.276,0,0,0-1.547-.925l-1.317.336,1.092,4.285.579-.148-.462-1.814.627-.16,1.36,1.585.651-.166-1.441-1.671A1.285,1.285,0,0,0,189.3,206.541Zm-.579.148a.673.673,0,0,1-.486.818l-.739.188-.333-1.308.739-.188A.684.684,0,0,1,188.717,206.689Z" transform="translate(-159.792 -204.843)" fill="#f3f3f3"/>
          <path id="Trazado_100942" data-name="Trazado 100942" d="M197.421,203.212l-1.009.257,1.092,4.285,1.009-.257a2.212,2.212,0,1,0-1.092-4.286Zm2.158,1.72a1.511,1.511,0,0,1-1.214,1.983l-.43.11-.8-3.122.43-.109A1.487,1.487,0,0,1,199.579,204.932Z" transform="translate(-166.792 -203.12)" fill="#f3f3f3"/>
        </g>
        <g id="Grupo_54011" data-name="Grupo 54011" transform="translate(36.126 30.164)">
          <rect id="Rectángulo_5300" data-name="Rectángulo 5300" width="25.559" height="1.171" transform="translate(0 6.311) rotate(-14.295)" fill="#fff"/>
        </g>
      </g>
      <g id="Grupo_54020" data-name="Grupo 54020" transform="translate(10.67 178.672)">
        <g id="Grupo_54019" data-name="Grupo 54019">
          <g id="Grupo_54013" data-name="Grupo 54013" transform="translate(12.515)">
            <path id="Trazado_100943" data-name="Trazado 100943" d="M174.628,631.62a.408.408,0,0,1-.446-.353L174,622.224c-.062-3.022-3.115-5.439-6.807-5.389s-6.645,2.549-6.584,5.571l.184,9.043a.4.4,0,0,1-.431.365.409.409,0,0,1-.446-.353l-.184-9.043c-.07-3.418,3.271-6.244,7.446-6.3s7.629,2.677,7.7,6.1l.184,9.043A.4.4,0,0,1,174.628,631.62Z" transform="translate(-159.728 -616.116)" fill="#3b455a"/>
          </g>
          <path id="Trazado_100944" data-name="Trazado 100944" d="M233.51,684.319l-1.789-1.755,2.092-28.814,1.37.7,2.241.361Z" transform="translate(-197.705 -642.51)" fill="#ccd2d9"/>
          <path id="Trazado_100945" data-name="Trazado 100945" d="M241.222,656.092l-.891,22.8,3.133-22.439Z" transform="translate(-203.744 -644.153)" fill="#b9bec4"/>
          <path id="Trazado_100946" data-name="Trazado 100946" d="M120.043,654.21l33.922-.462-1.319,28.869-34.81.081Z" transform="translate(-117.832 -642.509)" fill="#b9bec4"/>
          <path id="Trazado_100947" data-name="Trazado 100947" d="M177.379,686.6l-35.854,1.337-.25-30.122,32.732-.477Z" transform="translate(-134.271 -645.024)" fill="#ccd2d9"/>
          <path id="Trazado_100948" data-name="Trazado 100948" d="M125.086,686.5l-7.25-2.719,2.207-28.489,2.721.42,2.072.666Z" transform="translate(-117.832 -643.594)" fill="#c5cad1"/>
          <path id="Trazado_100949" data-name="Trazado 100949" d="M132.965,656.7l-.584,26.126,2.932,4.661-.258-30.173Z" transform="translate(-128.033 -644.58)" fill="#c1c6cc"/>
          <path id="Trazado_100950" data-name="Trazado 100950" d="M117.822,746.133l4.348-1.95,2.932,4.661Z" transform="translate(-117.822 -705.936)" fill="#b9bec4"/>
          <g id="Grupo_54015" data-name="Grupo 54015" transform="translate(14.514 15.7)">
            <path id="Trazado_100951" data-name="Trazado 100951" d="M168.175,669.393a.816.816,0,0,0-.892-.706.8.8,0,0,0-.862.73.816.816,0,0,0,.892.706A.8.8,0,0,0,168.175,669.393Z" transform="translate(-166.421 -668.687)" fill="#3b455a"/>
            <g id="Grupo_54014" data-name="Grupo 54014" transform="translate(0.376 0.308)">
              <path id="Trazado_100952" data-name="Trazado 100952" d="M168.682,670.121a.467.467,0,0,0-.51-.4.459.459,0,0,0-.493.417.467.467,0,0,0,.51.4A.459.459,0,0,0,168.682,670.121Z" transform="translate(-167.679 -669.717)" fill="#b9bec4"/>
            </g>
          </g>
          <g id="Grupo_54017" data-name="Grupo 54017" transform="translate(28.79 15.506)">
            <path id="Trazado_100953" data-name="Trazado 100953" d="M215.978,668.742a.816.816,0,0,0-.892-.706.8.8,0,0,0-.863.73.816.816,0,0,0,.892.706A.8.8,0,0,0,215.978,668.742Z" transform="translate(-214.224 -668.036)" fill="#3b455a"/>
            <g id="Grupo_54016" data-name="Grupo 54016" transform="translate(0.376 0.308)">
              <path id="Trazado_100954" data-name="Trazado 100954" d="M216.485,669.47a.466.466,0,0,0-.51-.4.459.459,0,0,0-.493.417.467.467,0,0,0,.51.4A.459.459,0,0,0,216.485,669.47Z" transform="translate(-215.483 -669.067)" fill="#b9bec4"/>
            </g>
          </g>
          <g id="Grupo_54018" data-name="Grupo 54018" transform="translate(14.77 1.014)">
            <path id="Trazado_100955" data-name="Trazado 100955" d="M182.177,635.015a.408.408,0,0,1-.446-.353l-.185-9.043c-.062-3.022-3.115-5.439-6.807-5.389s-6.645,2.549-6.584,5.571l.184,9.043a.4.4,0,0,1-.431.365.409.409,0,0,1-.446-.353l-.184-9.043c-.07-3.417,3.271-6.244,7.446-6.3s7.629,2.677,7.7,6.1l.184,9.043A.4.4,0,0,1,182.177,635.015Z" transform="translate(-167.277 -619.511)" fill="#3b455a"/>
          </g>
        </g>
      </g>
      <g id="Grupo_54028" data-name="Grupo 54028" transform="translate(214.124 27.86)">
        <g id="Grupo_54027" data-name="Grupo 54027">
          <g id="Grupo_54021" data-name="Grupo 54021" transform="translate(12.515)">
            <path id="Trazado_100956" data-name="Trazado 100956" d="M855.885,126.632a.408.408,0,0,1-.446-.353l-.184-9.043c-.062-3.022-3.115-5.439-6.807-5.389s-6.645,2.55-6.584,5.571l.184,9.043a.4.4,0,0,1-.431.365.408.408,0,0,1-.446-.353l-.185-9.043c-.07-3.418,3.271-6.244,7.446-6.3s7.63,2.677,7.7,6.1l.185,9.043A.4.4,0,0,1,855.885,126.632Z" transform="translate(-840.985 -111.128)" fill="#3b455a"/>
          </g>
          <path id="Trazado_100957" data-name="Trazado 100957" d="M914.767,179.331l-1.789-1.755,2.092-28.814,1.371.7,2.241.361Z" transform="translate(-878.962 -137.522)" fill="#ccd2d9"/>
          <path id="Trazado_100958" data-name="Trazado 100958" d="M922.479,151.1l-.891,22.8,3.133-22.439Z" transform="translate(-885.001 -139.165)" fill="#b9bec4"/>
          <path id="Trazado_100959" data-name="Trazado 100959" d="M801.3,149.222l33.922-.462L833.9,177.629l-34.81.081Z" transform="translate(-799.089 -137.521)" fill="#b9bec4"/>
          <path id="Trazado_100960" data-name="Trazado 100960" d="M858.635,181.608l-35.854,1.337-.25-30.122,32.732-.476Z" transform="translate(-815.528 -140.036)" fill="#ccd2d9"/>
          <path id="Trazado_100961" data-name="Trazado 100961" d="M806.343,181.514l-7.25-2.719,2.207-28.489,2.721.42,2.072.665Z" transform="translate(-799.089 -138.606)" fill="#c5cad1"/>
          <path id="Trazado_100962" data-name="Trazado 100962" d="M814.222,151.713l-.584,26.126,2.932,4.661-.258-30.174Z" transform="translate(-809.29 -139.592)" fill="#c1c6cc"/>
          <path id="Trazado_100963" data-name="Trazado 100963" d="M799.079,241.145l4.348-1.95,2.932,4.661Z" transform="translate(-799.079 -200.948)" fill="#b9bec4"/>
          <g id="Grupo_54023" data-name="Grupo 54023" transform="translate(14.514 15.7)">
            <path id="Trazado_100964" data-name="Trazado 100964" d="M849.432,164.4a.817.817,0,0,0-.892-.706.8.8,0,0,0-.862.73.816.816,0,0,0,.892.706A.8.8,0,0,0,849.432,164.4Z" transform="translate(-847.677 -163.699)" fill="#3b455a"/>
            <g id="Grupo_54022" data-name="Grupo 54022" transform="translate(0.376 0.308)">
              <path id="Trazado_100965" data-name="Trazado 100965" d="M849.939,165.133a.467.467,0,0,0-.51-.4.459.459,0,0,0-.493.417.467.467,0,0,0,.51.4A.459.459,0,0,0,849.939,165.133Z" transform="translate(-848.936 -164.729)" fill="#b9bec4"/>
            </g>
          </g>
          <g id="Grupo_54025" data-name="Grupo 54025" transform="translate(28.79 15.506)">
            <path id="Trazado_100966" data-name="Trazado 100966" d="M897.235,163.754a.817.817,0,0,0-.892-.706.8.8,0,0,0-.863.73.816.816,0,0,0,.892.706A.8.8,0,0,0,897.235,163.754Z" transform="translate(-895.481 -163.048)" fill="#3b455a"/>
            <g id="Grupo_54024" data-name="Grupo 54024" transform="translate(0.376 0.308)">
              <path id="Trazado_100967" data-name="Trazado 100967" d="M897.742,164.482a.466.466,0,0,0-.51-.4.459.459,0,0,0-.493.417.467.467,0,0,0,.51.4A.459.459,0,0,0,897.742,164.482Z" transform="translate(-896.74 -164.079)" fill="#b9bec4"/>
            </g>
          </g>
          <g id="Grupo_54026" data-name="Grupo 54026" transform="translate(14.77 1.014)">
            <path id="Trazado_100968" data-name="Trazado 100968" d="M863.434,130.027a.408.408,0,0,1-.446-.353l-.184-9.043c-.062-3.022-3.115-5.439-6.807-5.389s-6.645,2.549-6.584,5.571l.184,9.043a.4.4,0,0,1-.431.365.408.408,0,0,1-.446-.353l-.185-9.043c-.07-3.417,3.271-6.244,7.446-6.3s7.63,2.677,7.7,6.1l.184,9.043A.4.4,0,0,1,863.434,130.027Z" transform="translate(-848.534 -114.523)" fill="#3b455a"/>
          </g>
        </g>
      </g>
    </g>
  </g>
</svg>
