<svg xmlns="http://www.w3.org/2000/svg" width="85" height="75" viewBox="0 0 85 75">
  <g id="Grupo_54372" data-name="Grupo 54372" transform="translate(-390 -14754)">
    <g id="Grupo_8386" data-name="Grupo 8386" transform="translate(212.087 6076.523)">
      <path id="Trazado_2589" data-name="Trazado 2589" d="M273,8753.31a19.509,19.509,0,0,0-6.652-5.733c-3.289-1.893-5.9-3.169-6.36-7.5h-6.839c-.462,4.33-3.093,5.606-6.381,7.5a19.508,19.508,0,0,0-6.652,5.733c-1.282,1.7-.366,2.755,1.287,3.638,2.806,1.5,9.319,3.211,15.152,3.211s12.346-1.714,15.153-3.211C273.366,8756.059,274.28,8755.014,273,8753.31Z" transform="translate(-15.197 -15.169)" fill="#f78181"/>
      <path id="Trazado_2590" data-name="Trazado 2590" d="M272.834,8755.341a19.586,19.586,0,0,0-6.652-5.736,36.434,36.434,0,0,1-3.165-1.933,13.333,13.333,0,0,1-13.095-.019c-.95.688-2.126,1.262-3.32,1.951a19.5,19.5,0,0,0-6.652,5.736c-1.281,1.708-.369,2.757,1.281,3.641,2.806,1.5,9.319,3.213,15.153,3.213s12.347-1.718,15.153-3.213c1.66-.884,2.572-1.933,1.291-3.641Z" transform="translate(-15.152 -17.207)" fill="#3a417c"/>
      <path id="Trazado_2591" data-name="Trazado 2591" d="M261.582,8689.77c-4.077-1.088-12.619-.541-14.4,4.679a1.79,1.79,0,0,1-.7.933c-4.02,2.646-5.253,6.378-3.348,14.93h28.339C274.341,8694.2,266.513,8691.086,261.582,8689.77Z" transform="translate(-15.937 -1.511)" fill="#ffb45a"/>
      <path id="Trazado_2592" data-name="Trazado 2592" d="M271.13,8713.027a4.616,4.616,0,0,0-1.82-.206,1.756,1.756,0,0,1-.874-.151c-3.715-1.705-3.309-4.694-3.708-6.689-1.581-7.908-10.661-7.534-13.231-4.819a1.409,1.409,0,0,1-.737.43c-3.375.681-5.323,7.563-5.7,10.4a.924.924,0,0,1-.9.811,4.257,4.257,0,0,0-1.359.22c-1.738.611-2.221,2.621-1.52,4.494a4.014,4.014,0,0,0,3.681,2.815.986.986,0,0,1,1.034.68,12.85,12.85,0,0,0,7.553,8.121,8.283,8.283,0,0,0,6.84,0,12.848,12.848,0,0,0,7.552-8.122.989.989,0,0,1,1.036-.679,4.008,4.008,0,0,0,3.68-2.816c.7-1.869.219-3.882-1.519-4.492Z" transform="translate(-15.589 -4.228)" fill="#ff9797"/>
      <path id="Trazado_2593" data-name="Trazado 2593" d="M201.784,8691.26c-11.775,0-20.452,11.7-18.484,23.572,1.651,9.968,11.682,10.663,11.682,10.663l13.59-.013s10.042-.68,11.7-10.65C222.235,8702.955,213.561,8691.26,201.784,8691.26Z" transform="translate(0 -2.037)" fill="#3a417c"/>
      <path id="Trazado_2594" data-name="Trazado 2594" d="M217.149,8754.955c-2.67,1.427-8.881,3.07-14.444,3.07s-11.769-1.641-14.444-3.07c-1.583-.845-2.447-1.845-1.233-3.466a18.529,18.529,0,0,1,6.349-5.465c.8-.456,1.524-.786,2.184-1.1h.01c1.951-.912,3.271-1.607,3.6-4.687h7.077c.33,3.1,1.659,3.785,3.63,4.7.658.311,1.379.641,2.164,1.088a18.557,18.557,0,0,1,6.339,5.464C219.6,8753.105,218.731,8754.107,217.149,8754.955Z" transform="translate(-0.924 -15.214)" fill="#bf6666"/>
      <path id="Trazado_2595" data-name="Trazado 2595" d="M215.833,8715.941a1.979,1.979,0,0,1,.887,1.682,22.763,22.763,0,0,1-1.078,6.961c-1.02,2.708-3.66,7.31-8.717,8.356a12.572,12.572,0,0,1-5.892,0c-5.057-1.048-7.688-5.648-8.707-8.356a22.766,22.766,0,0,1-1.079-6.962,1.98,1.98,0,0,1,.887-1.678c3.843-2.592,9.082-3.349,11.85-3.34a23.056,23.056,0,0,1,11.849,3.34Z" transform="translate(-2.213 -7.779)" fill="#ce7a7a"/>
      <path id="Trazado_2596" data-name="Trazado 2596" d="M217.149,8756.681c-2.67,1.427-8.881,3.069-14.444,3.069s-11.769-1.64-14.444-3.069c-1.583-.845-2.447-1.845-1.233-3.466a18.519,18.519,0,0,1,6.349-5.465c.8-.456,1.524-.787,2.184-1.1h.01a13.084,13.084,0,0,0,7.115,1.708,13.465,13.465,0,0,0,7.193-1.7c.658.311,1.379.641,2.164,1.088a18.557,18.557,0,0,1,6.339,5.464C219.6,8754.836,218.731,8755.837,217.149,8756.681Z" transform="translate(-0.924 -16.938)" fill="#4856b5"/>
      <path id="Trazado_2597" data-name="Trazado 2597" d="M247.74,8705.744c-.025-15.172-15.96-28.687-29.764-18.523a1.667,1.667,0,0,1-.5.252c-3.72,1.178-6.406,4.713-8.187,8.952-5.466,12.994.776,30.167-1.132,44.8h38.587c-.716-9.845,1.011-26.314.995-35.479Z" transform="translate(-6.447)" fill="#ff6671"/>
      <path id="Trazado_2598" data-name="Trazado 2598" d="M246.915,8757.332a22.892,22.892,0,0,0-7.811-6.736c-3.862-2.224-6.689-1.917-7.233-7l-8.593-.035c-.543,5.087-3.277,4.815-7.139,7.038a22.921,22.921,0,0,0-7.811,6.736c-1.507,2-.432,3.234,1.512,4.271,3.3,1.759,10.948,3.771,17.8,3.771s14.469-2.013,17.763-3.771C247.347,8760.563,248.421,8759.328,246.915,8757.332Z" transform="translate(-6.617 -16.107)" fill="#ff9797"/>
      <path id="Trazado_2599" data-name="Trazado 2599" d="M246.915,8757.332a22.892,22.892,0,0,0-7.811-6.736c-3.862-2.224-6.689-1.917-7.233-7l-8.593-.035c-.543,5.087-3.277,4.815-7.139,7.038a22.921,22.921,0,0,0-7.811,6.736c-1.507,2-.432,3.234,1.512,4.271,3.3,1.759,10.948,3.771,17.8,3.771s14.469-2.013,17.763-3.771C247.347,8760.563,248.421,8759.328,246.915,8757.332Z" transform="translate(-6.617 -16.107)" fill="#ff9797"/>
      <path id="Trazado_2600" data-name="Trazado 2600" d="M238.1,8708.574a12.887,12.887,0,0,1,4.683,13.191,14.087,14.087,0,0,1-8.653,9.663,11.8,11.8,0,0,1-8.688,0,14.089,14.089,0,0,1-8.654-9.663,32.957,32.957,0,0,1-1.1-9.906c.531-7.939,3.786-13.663,8.134-12.6a.987.987,0,0,0,.7-.089C229.87,8696.242,231.017,8703.172,238.1,8708.574Z" transform="translate(-8.78 -3.978)" fill="#ffaeae"/>
      <path id="Trazado_2601" data-name="Trazado 2601" d="M245.4,8764.422c-3.3,1.754-10.911,3.775-17.763,3.775s-14.5-2.02-17.8-3.775c-1.941-1.039-3.019-2.272-1.505-4.271a21.94,21.94,0,0,1,6.737-6.105,23.42,23.42,0,0,0,12.552,3.058,23.684,23.684,0,0,0,12.629-3.01,22.238,22.238,0,0,1,6.668,6.058c1.5,2,.427,3.232-1.515,4.271Z" transform="translate(-6.617 -18.927)" fill="#5c8eff"/>
    </g>
    <rect id="Rectángulo_5460" data-name="Rectángulo 5460" width="85" height="75" transform="translate(390 14754)" fill="none"/>
  </g>
</svg>
