<svg xmlns="http://www.w3.org/2000/svg" width="85" height="83" viewBox="0 0 85 83">
  <g id="Grupo_54369" data-name="Grupo 54369" transform="translate(-390 -15093)">
    <g id="Grupo_8393" data-name="Grupo 8393" transform="translate(199.758 5942.907)">
      <path id="Trazado_2623" data-name="Trazado 2623" d="M239.138,9168.945a5.5,5.5,0,0,1,.49-7.975,12.515,12.515,0,0,1,9.021-2.725,1.262,1.262,0,0,1,1.182,1.177c.214,3.475-.764,7.215-3.2,9.52a5.352,5.352,0,0,1-7.488,0Z" transform="translate(-2.261 -0.861)" fill="#63ceba"/>
      <path id="Trazado_2624" data-name="Trazado 2624" d="M231.224,9168.323c3.058-3.054,2.544-8.033-.67-10.921-3.182-2.859-7.924-4-12.357-3.733a1.725,1.725,0,0,0-1.617,1.611c-.295,4.759,1.046,9.877,4.389,13.037a7.33,7.33,0,0,0,10.255.006Z" transform="translate(-1.084 -0.606)" fill="#63ceba"/>
      <g id="Grupo_8392" data-name="Grupo 8392" transform="translate(223.073 9160.384)">
        <path id="Trazado_2625" data-name="Trazado 2625" d="M235.947,9186.18a1.051,1.051,0,0,1-1.051-1.051v-4.814c0-7.756,2.435-12.979,7.664-16.431a1.05,1.05,0,1,1,1.228,1.7c-.023.015-.046.031-.07.045-4.586,3.031-6.72,7.7-6.72,14.683v4.815a1.052,1.052,0,0,1-1.05,1.054Z" transform="translate(-225.181 -9161.55)" fill="#b26b88"/>
        <path id="Trazado_2626" data-name="Trazado 2626" d="M235.376,9181.24a1.051,1.051,0,0,1-1.051-1.051c0-7.06-4.648-13.826-9.238-16.861a1.051,1.051,0,0,1,1.158-1.753c5.058,3.345,10.182,10.815,10.182,18.614A1.052,1.052,0,0,1,235.376,9181.24Z" transform="translate(-224.61 -9161.426)" fill="#b26b88"/>
        <path id="Trazado_2627" data-name="Trazado 2627" d="M225.661,9167.45a1.051,1.051,0,0,1-.116-2.1l3.787-.426a1.05,1.05,0,0,1,.242,2.087h-.006l-3.788.428a.809.809,0,0,1-.119.008Z" transform="translate(-224.607 -9161.62)" fill="#b26b88"/>
        <path id="Trazado_2628" data-name="Trazado 2628" d="M243.536,9168.063a.955.955,0,0,1-.252-.031l-2.172-.534a1.05,1.05,0,1,1,.442-2.053l.06.013,2.172.535a1.051,1.051,0,0,1-.249,2.07Z" transform="translate(-225.479 -9161.647)" fill="#b26b88"/>
      </g>
      <path id="Trazado_2629" data-name="Trazado 2629" d="M216.532,9183.72h38.111a2.12,2.12,0,0,1,2.121,2.12v7.018H214.411v-7.015a2.121,2.121,0,0,1,2.118-2.124Z" transform="translate(-0.966 -2.284)" fill="#ff889c"/>
      <rect id="Rect치ngulo_3123" data-name="Rect치ngulo 3123" width="48.432" height="25.019" rx="2.995" transform="translate(210.406 9188.107)" fill="#ffaeb2"/>
      <path id="Trazado_2630" data-name="Trazado 2630" d="M266.458,9213.554c-3.9-2.791-11.924.623-16.768,1.051,3.413-.427,4.438-4.864,1.051-6.773-1.954-1.1-9.083-3.271-13.729-4.358A33.7,33.7,0,0,0,215,9205.835c-3.777,1.652-14.636,8.591-17.4,12.637a2.58,2.58,0,0,0-.5,1.795c.2,2.409,7.206,9.548,9.4,10.329a2.62,2.62,0,0,0,2.455-.258c1.359-.818,4.376-3.609,7.358-4.561,5.527-1.762,14.548.166,18.968.189,6.5.035,28.362-4.889,31.8-7.815,1.376-1.168.957-3.468-.618-4.6Z" transform="translate(0 -3.336)" fill="#ffc2b6"/>
      <path id="Trazado_2631" data-name="Trazado 2631" d="M250.721,9216.3a28.972,28.972,0,0,1-4.767-.566c-3.111-.541-6.327-1.1-8.854.211a1.051,1.051,0,0,1-.97-1.865h0c3.156-1.641,6.893-.99,10.184-.42a19.723,19.723,0,0,0,5.389.482,1.051,1.051,0,0,1,.307,2.078l-.046,0A10.164,10.164,0,0,1,250.721,9216.3Z" transform="translate(-2.145 -3.918)" fill="#ffa39c"/>
      <path id="Trazado_2632" data-name="Trazado 2632" d="M261.595,9143.58l.858,1.568a1.629,1.629,0,0,0,.646.647l1.569.855a1.626,1.626,0,0,1,0,2.852l-1.568.858a1.61,1.61,0,0,0-.646.646l-.858,1.566a1.624,1.624,0,0,1-2.851,0l-.857-1.566a1.613,1.613,0,0,0-.646-.646l-1.569-.858a1.626,1.626,0,0,1,0-2.852l1.568-.857a1.628,1.628,0,0,0,.646-.646l.857-1.567a1.624,1.624,0,0,1,2.851,0Z" transform="translate(-1.331 10.289)" fill="#ffb273"/>
      <path id="Trazado_2633" data-name="Trazado 2633" d="M205.4,9170.3l.577,1.057a1.114,1.114,0,0,0,.435.436l1.056.576a1.094,1.094,0,0,1,.435,1.484,1.07,1.07,0,0,1-.435.435l-1.056.578a1.1,1.1,0,0,0-.435.435l-.577,1.056a1.093,1.093,0,0,1-1.919,0l-.578-1.056a1.086,1.086,0,0,0-.434-.436l-1.061-.577a1.093,1.093,0,0,1,0-1.918l1.056-.577a1.1,1.1,0,0,0,.435-.436l.578-1.057a1.094,1.094,0,0,1,1.924,0Z" transform="translate(-0.209 -1.503)" fill="#ffcba4"/>
    </g>
    <rect id="Rect치ngulo_5457" data-name="Rect치ngulo 5457" width="85" height="83" transform="translate(390 15093)" fill="none"/>
  </g>
</svg>
