<svg xmlns="http://www.w3.org/2000/svg" width="139.782" height="134.183" viewBox="0 0 139.782 134.183">
  <g id="Grupo_8407" data-name="Grupo 8407" transform="translate(-201.064 -11214.946)">
    <g id="Grupo_8402" data-name="Grupo 8402" transform="translate(201.064 11223.04)">
      <g id="Grupo_8401" data-name="Grupo 8401" transform="translate(38.134 99.668)">
        <rect id="Rect치ngulo_3130" data-name="Rect치ngulo 3130" width="14.518" height="16.251" transform="translate(24.498)" fill="#6e82a6"/>
        <rect id="Rect치ngulo_3131" data-name="Rect치ngulo 3131" width="14.518" height="6.92" transform="translate(24.498)" fill="#53627d"/>
        <path id="Trazado_2638" data-name="Trazado 2638" d="M270.9,11306.9H251.277l-20.978,4.307a1.215,1.215,0,0,0-.966,1.186v3.432a1.215,1.215,0,0,0,1.214,1.215h61.094a1.215,1.215,0,0,0,1.214-1.215v-3.432a1.213,1.213,0,0,0-.967-1.184Z" transform="translate(-229.333 -11290.618)" fill="#6e82a6"/>
      </g>
      <path id="Trazado_2639" data-name="Trazado 2639" d="M201.064,11229.113v83.382a8.165,8.165,0,0,0,8.166,8.163l123.45,0a8.166,8.166,0,0,0,8.165-8.165v-83.382a8.164,8.164,0,0,0-8.167-8.166H209.231a8.164,8.164,0,0,0-8.167,8.165Z" transform="translate(-201.064 -11220.947)" fill="#6e82a6"/>
      <path id="Trazado_2640" data-name="Trazado 2640" d="M329.425,11231.375v74.043a3.765,3.765,0,0,1-3.762,3.758H211.554a3.766,3.766,0,0,1-3.764-3.758v-74.043a3.767,3.767,0,0,1,3.764-3.764H325.663a3.766,3.766,0,0,1,3.762,3.764Z" transform="translate(-198.717 -11218.622)" fill="#9fddff"/>
    </g>
    <g id="Grupo_8406" data-name="Grupo 8406" transform="translate(225.915 11214.946)">
      <g id="Grupo_8403" data-name="Grupo 8403">
        <path id="Trazado_2641" data-name="Trazado 2641" d="M268,11266.415c-4.569-11.431-8.2-15.042-9.289-23.8-1.041-8.388,5.161-14.881,8.713-19.777a1.123,1.123,0,0,0,0-1.327,19.126,19.126,0,0,0-10.915-6.562,13.048,13.048,0,0,1-23.17,0,19.125,19.125,0,0,0-10.916,6.561,1.126,1.126,0,0,0,0,1.329c3.551,4.9,9.755,11.389,8.713,19.776-1.087,8.759-4.721,12.37-9.289,23.8-3.259,8.156-2.591,21.676-1.288,29.543a1.125,1.125,0,0,0,1.11.945h46.516a1.12,1.12,0,0,0,1.109-.943C270.594,11288.135,271.261,11274.645,268,11266.415Z" transform="translate(-219.486 -11214.947)" fill="#ff5579"/>
        <path id="Trazado_2642" data-name="Trazado 2642" d="M259.395,11266.415c-4.569-11.431-8.2-15.042-9.289-23.8-1.041-8.388,5.163-14.881,8.713-19.777a1.123,1.123,0,0,0,0-1.327,19.121,19.121,0,0,0-10.916-6.562,13.109,13.109,0,0,1-1.048,1.692,17.426,17.426,0,0,1,6.126,4.87,1.125,1.125,0,0,1,0,1.328c-3.55,4.9-9.754,11.389-8.713,19.776,1.087,8.759,4.721,12.37,9.289,23.8,3.259,8.156,2.591,21.676,1.288,29.543a1.125,1.125,0,0,1-1.11.945h5.838a1.125,1.125,0,0,0,1.11-.945C261.986,11288.135,262.654,11274.645,259.395,11266.415Z" transform="translate(-210.879 -11214.947)" fill="#c43661"/>
        <path id="Trazado_2643" data-name="Trazado 2643" d="M233.253,11248.79c-.4,2.083-.867,4.658-1.349,7.765a91.189,91.189,0,0,0-.893,11.33,2.047,2.047,0,0,0,1.99,2.105h.058A2.048,2.048,0,0,0,235.1,11268a87.591,87.591,0,0,1,.846-10.811c.482-3.062.944-5.606,1.338-7.664a43.156,43.156,0,0,0,11.474,0c.391,2.06.857,4.605,1.338,7.667a87.8,87.8,0,0,1,.846,10.81,2.046,2.046,0,0,0,2.045,1.99h.058a2.049,2.049,0,0,0,1.99-2.1,91.668,91.668,0,0,0-.893-11.332c-.49-3.1-.959-5.684-1.356-7.766a45.077,45.077,0,0,0,8.277-2.8l.051-.025c-.634-1.292-1.214-2.5-1.742-3.705a40.6,40.6,0,0,1-9.191,2.889c-.06.007-.12.015-.179.026s-.092.02-.135.031a38.961,38.961,0,0,1-13.695,0,1.069,1.069,0,0,0-.135-.033c-.06-.012-.121-.02-.182-.025a40.634,40.634,0,0,1-9.188-2.89c-.523,1.2-1.107,2.413-1.741,3.705l.05.025a45.264,45.264,0,0,0,8.272,2.8Z" transform="translate(-217.586 -11205.416)" fill="#c43661"/>
        <path id="Trazado_2644" data-name="Trazado 2644" d="M253.491,11246.051l-.018-.035-.086-.177-.022-.045c-.035-.069-.069-.134-.1-.208l-.013-.029-.109-.223h0l-.113-.234h0l-.112-.231h0q-.169-.349-.33-.691h0l-.105-.222-.007-.015-.1-.219h0c-.105-.227-.209-.452-.31-.675h0c-.032-.073-.066-.146-.1-.221h0c-.032-.071-.065-.143-.1-.214v-.016l-.093-.211v-.009a41.326,41.326,0,0,1-4.992,1.866c.557,1.178,1.167,2.4,1.817,3.725a45.181,45.181,0,0,0,4.856-1.861Z" transform="translate(-209.961 -11205.375)" fill="#911645"/>
      </g>
      <g id="Grupo_8405" data-name="Grupo 8405" transform="translate(42.061 28.388)">
        <path id="Trazado_2645" data-name="Trazado 2645" d="M277.685,11255.1v12.315h9.366a2.209,2.209,0,0,0,2.211-2.213v-7.891a2.208,2.208,0,0,0-2.211-2.211Z" transform="translate(-241.237 -11229.322)" fill="#6f6c99"/>
        <path id="Trazado_2646" data-name="Trazado 2646" d="M282.992,11263.254H257.051l3.2-27.263h19.543Zm0,9.6H257.051l3.2,27.263h19.543Z" transform="translate(-248.438 -11235.991)" fill="#6f6c99"/>
        <g id="Grupo_8404" data-name="Grupo 8404" transform="translate(25.356)">
          <path id="Trazado_2647" data-name="Trazado 2647" d="M278.661,11263.254l-3.2-27.263h-6l3.2,27.263Z" transform="translate(-269.462 -11235.991)" fill="#46436e"/>
          <path id="Trazado_2648" data-name="Trazado 2648" d="M269.462,11290.554h6l3.2-27.263h-6Z" transform="translate(-269.462 -11226.464)" fill="#46436e"/>
        </g>
        <circle id="Elipse_42" data-name="Elipse 42" cx="19.532" cy="19.532" r="19.532" transform="translate(2.05 12.466)" fill="#30c1ff"/>
        <path id="Trazado_2649" data-name="Trazado 2649" d="M267.521,11245.2a19.339,19.339,0,0,0-3.307.275,19.537,19.537,0,0,1,0,38.512,19.534,19.534,0,1,0,3.306-38.788Z" transform="translate(-245.938 -11232.777)" fill="#1591cf"/>
        <path id="Trazado_2650" data-name="Trazado 2650" d="M272.25,11286.869a21.584,21.584,0,1,1,21.584-21.584A21.584,21.584,0,0,1,272.25,11286.869Zm0-39.066a17.515,17.515,0,1,0,0-.057Z" transform="translate(-250.666 -11233.301)" fill="#1a1a3a"/>
        <path id="Trazado_2651" data-name="Trazado 2651" d="M272.246,11265.406H267.2a2.05,2.05,0,0,1-2.048-2.049v-12.16a2.048,2.048,0,1,1,4.1,0v10.117h3a2.046,2.046,0,1,1,0,4.093Z" transform="translate(-245.612 -11231.397)" fill="#46436e"/>
      </g>
    </g>
    <path id="Trazado_2652" data-name="Trazado 2652" d="M277.039,11227.352a9.39,9.39,0,0,0-6.777,6.777,1.349,1.349,0,0,1-2.554,0,9.388,9.388,0,0,0-6.776-6.773,1.349,1.349,0,0,1,0-2.555,9.388,9.388,0,0,0,6.776-6.779,1.349,1.349,0,0,1,2.554,0,9.388,9.388,0,0,0,6.777,6.779,1.349,1.349,0,0,1,0,2.553Z" transform="translate(20.574 0.754)" fill="#fdcb70"/>
  </g>
</svg>
