<svg xmlns="http://www.w3.org/2000/svg" width="400.672" height="330.787" viewBox="0 0 400.672 330.787">
  <g id="Grupo_53884" data-name="Grupo 53884" transform="translate(-915.333 -174.213)">
    <g id="Grupo_53872" data-name="Grupo 53872" transform="translate(768.945 1038.036)">
      <g id="Grupo_53925" data-name="Grupo 53925">
        <g id="Grupo_53755" data-name="Grupo 53755">
          <path id="Trazado_100598" data-name="Trazado 100598" d="M388.526-855.132c53.613.472,175.628,241.182,129.41,295.531S169.929-568.118,183.1-645.759,334.914-855.6,388.526-855.132Z" fill="#fff" opacity="0.2" style="isolation: isolate"/>
          <path id="Trazado_100599" data-name="Trazado 100599" d="M423.373-862.414S560.711-747.332,544.766-568.468" fill="none" stroke="#fff" stroke-linecap="round" stroke-linejoin="round" stroke-width="2" stroke-dasharray="12"/>
        </g>
      </g>
      <g id="Grupo_53881" data-name="Grupo 53881">
        <g id="Grupo_53872-2" data-name="Grupo 53872">
          <path id="Rectángulo_5268" data-name="Rectángulo 5268" d="M15.62,0h255.2a15.852,15.852,0,0,1,15.852,15.852V163.521a15.852,15.852,0,0,1-15.852,15.852H15.852A15.852,15.852,0,0,1,0,163.521V15.62A15.62,15.62,0,0,1,15.62,0Z" transform="translate(222.245 -793.719)" fill="#f38746"/>
          <path id="Trazado_100727" data-name="Trazado 100727" d="M502.645-774.852V-636.2a17.386,17.386,0,0,1-17.386,17.387H244.4A15.885,15.885,0,0,1,228.519-634.7V-775.072a14.918,14.918,0,0,1,15.1-14.724H487.315A15.141,15.141,0,0,1,502.645-774.852Z" fill="#fdebea"/>
          <path id="Trazado_100728" data-name="Trazado 100728" d="M502.645-774.462v2.182H228.519v-2.407a15.107,15.107,0,0,1,15.1-15.109H487.315A15.332,15.332,0,0,1,502.645-774.462Z" fill="#e64f48" opacity="0.6"/>
        </g>
        <g id="Grupo_53873" data-name="Grupo 53873">
          <path id="Trazado_100729" data-name="Trazado 100729" d="M285.8-578.322s6.223,3.294,8.289,3.688c2.543.485,4.327.422,4.327,3.3H279.04s-1.828-3.516-.823-5.618S285.8-578.322,285.8-578.322Z" fill="#17192b"/>
          <path id="Trazado_100730" data-name="Trazado 100730" d="M319.347-579.157s6.217,3.074,8.145,3.912c2.377,1.033,4.754.215,5,3.913h-17s-1.828-3.516-.823-5.618S319.347-579.157,319.347-579.157Z" fill="#17192b"/>
          <path id="Trazado_100731" data-name="Trazado 100731" d="M272.519-598.007l14.566,20.527a16.08,16.08,0,0,1-10.6.987s-16.638-12.244-15.541-15.447S272.519-598.007,272.519-598.007Z" fill="#303030"/>
          <path id="Trazado_100732" data-name="Trazado 100732" d="M199.241-584.171s-.285,12.839,8.126,12.839,22.306.006,22.306.006l-2.377-22.9Z" fill="#515151"/>
          <path id="Trazado_100733" data-name="Trazado 100733" d="M213.02-648.166c-.757,4.205-2.446,8.878-6.165,11.069-5.383,3.163-15.765-4.637-21.392-9.479,1.232-.329,2.607-.669,4.084-.994a21.079,21.079,0,0,0,2.4-10.612c-.015-.4-.041-.808-.077-1.225.771-.41,2.219-1.181,3.77-2l7.5,3.631s.212.947.453,2.713c.132.958.274,2.158.4,3.577.058.665.113,1.386.157,2.15.205,0,.409,0,.611.007A31.02,31.02,0,0,1,213.02-648.166Z" fill="#ee7e69"/>
          <path id="Trazado_100734" data-name="Trazado 100734" d="M185.463-646.576s-11.129,2.311-12.9,6.975c-2.633,6.952,3.657,31.635,3.657,38.875s-.487,20.3,1.463,26.761h3.327s4.034-22.02,4.034-25.478S185.463-646.576,185.463-646.576Z" fill="#ee7e69"/>
          <path id="Trazado_100735" data-name="Trazado 100735" d="M280.459-604.029s-4.063,3.489-9.972,8.217c-.406.329-.823.658-1.247.995v0h0c-13.172,10.459-34.1,25.876-41.087,24.194-8.246-1.982-4.725-17.045-2.849-23.375.512-1.718.9-2.794.9-2.794,0-1.217,38.517-16.374,46.321-14.283a16.349,16.349,0,0,1,3.229,1.214,9.162,9.162,0,0,1,3.935,3.529A5.415,5.415,0,0,1,280.459-604.029Z" fill="#515151"/>
          <path id="Trazado_100736" data-name="Trazado 100736" d="M322.676-578.6c-.943,2.988-9.416,4.385-9.416,4.385-27.576-6.491-39.771-16.394-44.02-20.6h0c-1.115-1.108-1.682-1.821-1.836-1.975l8.349-13.069q1.98,1.827,3.935,3.529C302.743-586.2,322.676-578.6,322.676-578.6Z" fill="#515151"/>
          <path id="Trazado_100737" data-name="Trazado 100737" d="M177.686-573.965s-5.241-.2-7.527.53a20.863,20.863,0,0,0-4.388,2.1h15.093l.149-2.633Z" fill="#ee7e69"/>
          <path id="Trazado_100738" data-name="Trazado 100738" d="M213.019-648.165s23.907,23.433,30.489,26.069,30.3,8,30.3,8l-1.286,3.027s-27.236-.1-32.268-1.808-28.617-15.359-29.989-19.991S213.019-648.165,213.019-648.165Z" fill="#f39986"/>
          <path id="Trazado_100739" data-name="Trazado 100739" d="M269.236-594.814c-13.172,10.459-34.1,25.876-41.087,24.194-8.246-1.982-4.725-17.045-2.849-23.375l2-.234S245.719-589.793,269.236-594.814Z" fill="#515151"/>
          <path id="Trazado_100740" data-name="Trazado 100740" d="M313.26-574.211c-27.576-6.491-39.771-16.394-44.02-20.6v0a3.648,3.648,0,0,1,1.247-.995C273.792-597.6,284.569-599.078,313.26-574.211Z" fill="#515151"/>
          <path id="Trazado_100741" data-name="Trazado 100741" d="M239.367-624.646a13.818,13.818,0,0,1-1.525,3.079,13.3,13.3,0,0,1-6.827,5.507l-10.666-7.148,0,.007c.055.285,1.935,9.43,3.013,10.871,1.1,1.463,11.1,11.632,11.1,11.632a49.783,49.783,0,0,1-10.133,13.819c-6.575,6.239-16.371,11.585-29.455,8.433,0,0-9.556-27.4-9.409-32.626l-.136-.033c-1.352-.321-12.528-3.093-13.171-6.527,0,0-1.375-11.947-.622-19.308.274-2.7.837-4.783,1.858-5.437,3.806-2.436,14.689-4.857,14.689-4.857s3.609,2.827,10.846,1.17c1.744-.4,3.152-.786,4.286-1.144,3.569-1.13,4.41-1.967,4.41-1.967s6.6-.088,10.257,3.2S239.367-624.646,239.367-624.646Z" fill="#71bce5"/>
          <path id="Trazado_100742" data-name="Trazado 100742" d="M237.842-621.567a13.3,13.3,0,0,1-6.827,5.507l-10.666-7.148C221.939-625.373,233.615-622.642,237.842-621.567Z" fill="#429dd5"/>
          <path id="Trazado_100743" data-name="Trazado 100743" d="M234.46-600.7a49.783,49.783,0,0,1-10.133,13.819c-6.575,6.239-16.371,11.585-29.455,8.433,0,0-9.556-27.4-9.409-32.626l-.136-.033c-1.352-.321-12.528-3.093-13.171-6.527,0,0-1.375-11.947-.622-19.308.274-2.7.837-4.783,1.858-5.437,3.806-2.436,14.689-4.857,14.689-4.857s3.609,2.827,10.846,1.17c1.744-.4,3.152-.786,4.286-1.144a23.318,23.318,0,0,0,6.768.632c3.716-.058,2.688,25.836,4.476,33.23S234.46-600.7,234.46-600.7Z" fill="#429dd5"/>
          <path id="Trazado_100744" data-name="Trazado 100744" d="M203.992-651.49c.058.665.113,1.386.157,2.15-2.505-.779-3.244-6.078-3.244-6.078a3.808,3.808,0,0,1,2.688.351C203.725-654.109,203.867-652.909,203.992-651.49Z" fill="#f39986"/>
          <path id="Trazado_100745" data-name="Trazado 100745" d="M204.76-649.333a.941.941,0,0,1-.611-.007C204.354-649.34,204.558-649.336,204.76-649.333Z" fill="#f39986"/>
          <path id="Trazado_100746" data-name="Trazado 100746" d="M204.89-654.641s-13.318,1.532-14.144-6.777-3.1-13.707,5.367-15.036,10.438,1.677,11.389,4.383S208.334-655.253,204.89-654.641Z" fill="#f39986"/>
          <path id="Trazado_100747" data-name="Trazado 100747" d="M210.11-678.944s1.279,5.912-3.566,8.745-5.211,5.668-6.765,5.12-3.657.092-2.742,1.646a17.917,17.917,0,0,1,1.889,3.349c.213.856-2.8,4.878-4.723,4.97s-3.109,1.027-4.937-6.3-3.455-12.524.573-16.071C195.238-682.235,208.555-678,210.11-678.944Z" fill="#17192b"/>
          <path id="Trazado_100748" data-name="Trazado 100748" d="M273.8-614.1s7,2.73,7.734,2.827,1.5,7.8,1.5,7.8l-10.522-7.6Z" fill="#f39986"/>
        </g>
        <g id="Grupo_53876" data-name="Grupo 53876">
          <g id="Grupo_53874" data-name="Grupo 53874">
            <path id="Trazado_100749" data-name="Trazado 100749" d="M429.348-738.744c-1.483,1.257-4.484,3.615-5.682,4.617l3.036,37.97-31.25-13.969-5.682,4.617a38.187,38.187,0,0,0-1.158,9.352,38.091,38.091,0,0,0,38.09,38.091,38.091,38.091,0,0,0,38.091-38.091C464.793-717.194,450.385-738.744,429.348-738.744Z" fill="#206a94"/>
            <path id="Trazado_100750" data-name="Trazado 100750" d="M417.138-741.94a38.113,38.113,0,0,0-33.9,28.618l36.932,9.352,5.682-4.616Z" fill="#700e3f"/>
          </g>
          <g id="Grupo_53875" data-name="Grupo 53875">
            <path id="Trazado_100751" data-name="Trazado 100751" d="M432.384-738.864q-1.533,0-3.036.12l3.036,37.971-36.932-9.353a38.194,38.194,0,0,0-1.158,9.353,38.091,38.091,0,0,0,38.09,38.091,38.091,38.091,0,0,0,38.091-38.091A38.091,38.091,0,0,0,432.384-738.864Z" fill="#429dd5"/>
            <path id="Trazado_100752" data-name="Trazado 100752" d="M422.82-746.557a38.116,38.116,0,0,0-33.9,28.618l36.933,9.353Z" fill="#ad2564"/>
          </g>
        </g>
        <g id="Grupo_53879" data-name="Grupo 53879">
          <g id="Grupo_53878" data-name="Grupo 53878">
            <g id="Grupo_53877" data-name="Grupo 53877">
              <path id="Trazado_100753" data-name="Trazado 100753" d="M467.109-573.289s5.265-6.018,6.755-8.758l4.1-7.565,5.362,1.326-6.806,9.645-7.109,6.015Z" fill="#f39986"/>
              <path id="Trazado_100754" data-name="Trazado 100754" d="M501.016-721.1a6.933,6.933,0,0,1,3.756-.718,1.751,1.751,0,0,0-.792-.376,5.814,5.814,0,0,1,2.078.542c8.943-3.446,10.348,9.721,10.16,12.781s3.005,4.057,7.658,6.467c8.877,4.6,9.657,10.758,9.657,10.758-.069.04-.141.087-.218.14-.44-.747-1.347-2.148-2.112-2.359a31.5,31.5,0,0,1,1.23,3c-2.619,1.992-7.518,6.406-10.933,9.536a5.01,5.01,0,0,0-.232-1.939l-.422,2.54c-1.827,1.68-3.087,2.861-3.087,2.861.226-2.472-11.181-15.517-17.131-19.424-1.449-2.133-1.964-5.9-2-6.2a16.253,16.253,0,0,0,1.218,5.606C494.8-702.522,497.738-719.236,501.016-721.1Z" fill="#17192b"/>
              <path id="Trazado_100755" data-name="Trazado 100755" d="M500.98-697.1c-.03.014,2.873,1.521,5.057.924,2.054-.56,3.4-3.223,3.367-3.229-.869-.173-1.12-1.369-1.1-6.5l-.393.077-6.612,1.31s.151,2.08.155,4.041C501.456-698.837,501.356-697.276,500.98-697.1Z" fill="#ee7e69"/>
              <path id="Trazado_100756" data-name="Trazado 100756" d="M508.457-718.943a5.285,5.285,0,0,0-7.357-.177A28.687,28.687,0,0,1,508.457-718.943Z" fill="#a0c88d"/>
              <path id="Trazado_100757" data-name="Trazado 100757" d="M508.592-706.553a19.428,19.428,0,0,0,2.4-5.683c.333-1.87-.62-8.8-7.587-7.8a9.458,9.458,0,0,0-3.925,1.484c-1.512,1.021-3.7,3.227-1.255,9.276l.634,2.044Z" fill="#17192b"/>
              <path id="Trazado_100758" data-name="Trazado 100758" d="M474.943-584.691l3.505.107,3.794.117a74.886,74.886,0,0,0,13.678-25.4q.172-.544.364-1.1c2.69-7.844,8.267-17.69,11.205-26.6.468-1.42.888-2.756,1.265-4.021.121-.405.238-.8.35-1.194a94.5,94.5,0,0,0,3.371-17.745l-21.221.17A395.553,395.553,0,0,1,474.943-584.691Z" fill="#a1623a"/>
              <path id="Trazado_100759" data-name="Trazado 100759" d="M492.743-658.121a28.517,28.517,0,0,0,19.885,1.218c.127-.04-.713-41.741-3.775-42.89a6.653,6.653,0,0,1-4.659,1.713c-2.151-.047-2.849-.968-2.737-1.974-2.292,1.276-4.122,2.481-4.122,2.481C495.387-694.189,492.743-658.121,492.743-658.121Z" fill="#e1edfa"/>
              <path id="Trazado_100760" data-name="Trazado 100760" d="M512.475-671.426c.928,1.313,2.706,9.293,7.131,10.3-2.28-5.688-4.011-8.181-4.282-9.93a43.109,43.109,0,0,1-.262-9.827c-1.481-2.6-2.587-4.376-2.587-4.376-.116-.42-2.354-7.339-3.071-1.155S511.439-672.9,512.475-671.426Z" fill="#4c8998"/>
              <path id="Trazado_100761" data-name="Trazado 100761" d="M500.062-702.667s8.753.144,8.759-5.309,1.14-9.106-4.449-9.429-6.677,1.756-7.122,3.576S497.784-702.845,500.062-702.667Z" fill="#f39986"/>
              <path id="Trazado_100762" data-name="Trazado 100762" d="M500.385-717.539s2.4,6.4,6.076,7.343,5.273-.039,5.273-.039-.8-3.62-1.383-7.532C510.351-717.767,502.193-720.584,500.385-717.539Z" fill="#17192b"/>
              <path id="Trazado_100763" data-name="Trazado 100763" d="M500.98-717.019a7.725,7.725,0,0,0-2.227,2.816c-.436,1.389-.633,4.247-1.466,4.15,0,0-1.806-4.348.224-6.808C499.663-719.469,500.98-717.019,500.98-717.019Z" fill="#17192b"/>
              <path id="Trazado_100764" data-name="Trazado 100764" d="M464.836-693.617a5.464,5.464,0,0,0-6.124-3.819c-.561.175-2.2.829-1.153,2.585.773,1.294,1.107.626,2.323,2.365a3.872,3.872,0,0,0,4.041,1.924Z" fill="#f39986"/>
              <path id="Trazado_100765" data-name="Trazado 100765" d="M506.62-574.189c.3-1.639.865-4.473.865-4.473l-.132-10.053h6.106l-2.284,9.623a9.8,9.8,0,0,0,.469,4.018s.587,2.672-2.045,2.722S506.322-572.551,506.62-574.189Z" fill="#f39986"/>
              <path id="Trazado_100766" data-name="Trazado 100766" d="M506.371-571.046h5.473a14.724,14.724,0,0,0-.2-4.024c-2.978,2.886-4.843-.072-4.843-.072A14.88,14.88,0,0,0,506.371-571.046Z" fill="#17192b"/>
              <path id="Trazado_100767" data-name="Trazado 100767" d="M464.554-571.027H471.3a11.262,11.262,0,0,0,1.829-3.017,3.262,3.262,0,0,1,2.2-1.505v4.522h1.4l1.283-4.81c.86-1.618.2-3.073-.4-4.351-.7,0-2.727.48-6.312,4.618a4.65,4.65,0,0,1-3.769,1.8.4.4,0,0,1-.053.028A5.028,5.028,0,0,0,464.554-571.027Z" fill="#17192b"/>
              <path id="Trazado_100768" data-name="Trazado 100768" d="M464.836-693.617s5.746,3.213,7.8,4.139c1.17.528,3.863,1.789,5.761,2.68a2.961,2.961,0,0,0,3.509-.756c3.115-3.639,11.224-11.532,19.553-12.5,0,0-5.065,12.513-5.214,15.045s-.6,41.408-.6,41.408.3,1.788-3.127,1.043-4.32-1.49-4.32-1.49,3.277-23.981,2.383-32.322a18.586,18.586,0,0,1,.354-5.4,42.646,42.646,0,0,1-11.078,4.459,62.155,62.155,0,0,1-10.626-6.455c-1.926-1.411-5.31-6.794-5.31-6.794Z" fill="#ad2564"/>
              <path id="Trazado_100769" data-name="Trazado 100769" d="M478.448-584.584l3.794.117a74.886,74.886,0,0,0,13.678-25.4q.172-.544.364-1.1c2.69-7.844,8.267-17.69,11.205-26.6.468-1.42.888-2.756,1.265-4.021.121-.405.238-.8.35-1.194l-3.125-2.372s-9.382,15.194-12.287,29.491C491.169-603.244,481.064-588.3,478.448-584.584Z" fill="#8e5836"/>
              <path id="Trazado_100770" data-name="Trazado 100770" d="M505.653-614.332c-.054,6.953.3,22.938,1.2,29.556h3.361c1.857,0,2.784-.026,2.784-.026,2.271-11.507,3.887-21.028,5.064-29.232.965-6.733,1.823-12.505,2.483-17.474.664-5,1.126-9.187,1.292-12.725.024-.557.044-1.1.054-1.625s.014-1.042.01-1.541l-18.336-1.788C503.8-637,505.683-618.373,505.653-614.332Z" fill="#a1623a"/>
              <path id="Trazado_100771" data-name="Trazado 100771" d="M510.217-584.776c1.857,0,2.784-.026,2.784-.026,2.271-11.507,3.887-21.028,5.064-29.232.965-6.733,1.823-12.505,2.483-17.474.664-5,1.126-9.187,1.292-12.725l-6.729,3.958s4.295,1.515,2.656,12.984S512.5-586.4,510.217-584.776Z" fill="#8e5836"/>
              <path id="Trazado_100772" data-name="Trazado 100772" d="M509.351-644.345s1.291,4.666,5.759,4.07,10.824-3.277,10.824-3.277-1.911-6.034-4.284-13.961c-.026-.084-.05-.168-.076-.254-2.8-9.36-6.226-21.275-7.928-29.028-.037-.166-.072-.33-.107-.49a48.088,48.088,0,0,1-.911-5.321l-3.776-7.188s-5.459,12.4-5.757,15.529S509.351-644.345,509.351-644.345Z" fill="#ad2564"/>
              <path id="Trazado_100773" data-name="Trazado 100773" d="M513.813-684.731l-4.96-15.062a74.671,74.671,0,0,1,9.349,3.4s1.939,2.5,3.138,8.267c0,0,1.268,13.845-1.563,18.909,0,0-8.937,1.788-23.236-3.127v-3.277s15.64.819,18.842,1.191Z" fill="#f39986"/>
              <path id="Trazado_100774" data-name="Trazado 100774" d="M509.979-677.711c.2,5,1.36,14.633,11.595,19.944-2.8-9.36-6.226-21.275-7.928-29.028C511.789-683.946,509.877-680.346,509.979-677.711Z" fill="#700e3f"/>
              <path id="Trazado_100775" data-name="Trazado 100775" d="M508.853-699.793s9.137.633,11.321,5.5,2.88,21.052.1,25.818c0,0-3.828,1.091-10.6-.176l-.25-.047s-2.159-5.288-.223-6.331c0,0,5.71.3,5.114-1.588S508.853-699.793,508.853-699.793Z" fill="#ad2564"/>
              <path id="Trazado_100776" data-name="Trazado 100776" d="M498.144-674.754a7.815,7.815,0,0,1-1.511-3.052,3.318,3.318,0,0,0-3.241-2.967c-2.151-.282-3.075-.313-3.07.293a16.052,16.052,0,0,0,4.843,7.366C498.251-670.587,498.144-674.754,498.144-674.754Z" fill="#f39986"/>
            </g>
          </g>
          <path id="Trazado_100777" data-name="Trazado 100777" d="M460.111-694.823a.386.386,0,0,0,.311-.14.384.384,0,0,0-.053-.542l-26.885-22.174a.386.386,0,0,0-.543.052.385.385,0,0,0,.052.542l26.886,22.174A.389.389,0,0,0,460.111-694.823Z" fill="#17192b"/>
        </g>
        <path id="Trazado_100778" data-name="Trazado 100778" d="M385.264-732.152a.434.434,0,0,0,.308-.128.435.435,0,0,0,0-.617L365.9-752.565H239.41a.436.436,0,0,0-.436.436.436.436,0,0,0,.436.436H365.543l19.413,19.413A.436.436,0,0,0,385.264-732.152Z" fill="#17192b"/>
        <path id="Trazado_100779" data-name="Trazado 100779" d="M361.572-755.663H242.985a4.011,4.011,0,0,1-4.011-4.011h0a4.011,4.011,0,0,1,4.011-4.011H361.572a4.01,4.01,0,0,1,4.01,4.011h0A4.01,4.01,0,0,1,361.572-755.663Z" fill="#56a7a8"/>
        <path id="Rectángulo_5269" data-name="Rectángulo 5269" d="M7.081,0H42.494a7.08,7.08,0,0,1,7.08,7.08V86.236a7.08,7.08,0,0,1-7.08,7.08H7.08A7.08,7.08,0,0,1,0,86.236V7.081A7.081,7.081,0,0,1,7.081,0Z" transform="translate(300.32 -725.523)" fill="#f89737"/>
        <path id="Trazado_100780" data-name="Trazado 100780" d="M343.96-732.751H306.254a5.934,5.934,0,0,1-5.934-5.934h0a5.934,5.934,0,0,1,5.934-5.934H343.96a5.934,5.934,0,0,1,5.934,5.934h0A5.934,5.934,0,0,1,343.96-732.751Z" fill="#f89737"/>
        <g id="girl_2" data-name="girl 2">
          <path id="Trazado_100781" data-name="Trazado 100781" d="M359.356-593.658c.626-1.468,10.179-26.518,17.591-26.517,3.972,0,7.516.911,6.681,7.45s-8.143,42-12.736,41.495S359.356-593.658,359.356-593.658Z" fill="#e8e8e8"/>
          <path id="Trazado_100782" data-name="Trazado 100782" d="M386.29-577.006s-.705,4.48,0,5.776h13.7s-1.566-3.48-3.445-4.263a21.7,21.7,0,0,1-3.562-1.958Z" fill="#17192b"/>
          <path id="Trazado_100783" data-name="Trazado 100783" d="M389.628-615.729s3.709,35.749,4.127,38.723c0,0-5.742,1.15-7.465,0s-8.926-20.335-8.769-23.78S389.628-615.729,389.628-615.729Z" fill="#f6f6f6"/>
          <path id="Trazado_100784" data-name="Trazado 100784" d="M365.306-593.658c.627-1.468,10.179-26.518,17.591-26.517,3.973,0,7.517.911,6.682,7.45s-8.143,42-12.737,41.495S365.306-593.658,365.306-593.658Z" fill="#fff"/>
          <path id="Trazado_100785" data-name="Trazado 100785" d="M337.1-588.494s-2.849,16.354,9.261,17.264,28.605.714,30.484,0,7.83-14.912-3.393-17.731S337.1-588.494,337.1-588.494Z" fill="#fff"/>
          <path id="Trazado_100786" data-name="Trazado 100786" d="M371.766-610.9c.986-5.04,4.2-25.177.986-31.656-1.154-2.328-5.685-2.538-10.655-2.334-1.547,1-7.44,4.772-9.861,4.3-.026-.005-21.67,12.7-16.213,24.847,2.5,5.563,1.6,13.967.254,20.5a10.581,10.581,0,0,0,7.911,12.463c13.019,3.071,29.158,1.392,29.261-6.188C373.563-597.327,370.506-604.454,371.766-610.9Z" fill="#32abaa"/>
          <path id="Trazado_100787" data-name="Trazado 100787" d="M390.675-618.714c-1.059-1.058-4.238-1.353-6.189-1.433a26.1,26.1,0,0,0-2.737-4.83c-6.734-9.553-9.3-19.547-11.353-18.687s-4.686,11.524-4.686,11.524,11.341,18.594,19.171,22.352C390.049-609.161,392.241-617.148,390.675-618.714Z" fill="#f39986"/>
          <path id="Trazado_100788" data-name="Trazado 100788" d="M369.881-644.452s3.055.057,5.895,6.555c0,0-2.953,11.51-9.06,10.493S369.881-644.452,369.881-644.452Z" fill="#32abaa"/>
          <path id="Trazado_100789" data-name="Trazado 100789" d="M359.187-674.413s-7.334-1.393-10.986,1.275c-6.616,4.831-6.971,21.488-9.451,23.97s-8.457,1.423-8.989,14.262,2.38,13.912-1.088,19.644,1.467,11.467,1.467,11.467-2.021-3.164-1.155-5.447c0,0,4.316,6.215,7.247,7.963,7.949,4.741,16.81,3.067,21.161.138a5.362,5.362,0,0,1,2.133-.811c2.16-.359,6.7-3.2,5.034-21.213-.913-9.886,5.375-19.762,2.75-24.064a9.527,9.527,0,0,1,1.313,3.888,5.118,5.118,0,0,0-1.155-5.827c-2.73-2.81,3.2-8.624,2.324-15.357C369.189-669.147,365.945-674.211,359.187-674.413Z" fill="#17192b"/>
        </g>
        <g id="Grupo_53880" data-name="Grupo 53880">
          <path id="Trazado_100790" data-name="Trazado 100790" d="M416.373-624.747h31.679l8.363-19.7H424.736Z" fill="#5b5a59"/>
          <path id="Trazado_100791" data-name="Trazado 100791" d="M415.824-624.747H447.5l8.363-19.7H424.187Z" fill="#5b5a59"/>
          <path id="Trazado_100792" data-name="Trazado 100792" d="M416.987-625.507h29.438l7.772-18.31H424.758Z" fill="#d2eaec"/>
          <path id="Trazado_100793" data-name="Trazado 100793" d="M405.665-624.114H447.8l.253-.633H405.665Z" fill="#5b5a59"/>
        </g>
      </g>
      <g id="Grupo_53883" data-name="Grupo 53883">
        <g id="Grupo_53882" data-name="Grupo 53882">
          <path id="Trazado_100794" data-name="Trazado 100794" d="M284.112-631.2c0,1.964-7.067,3.556-15.785,3.556s-15.785-1.592-15.785-3.556c0-2.625,3.988-4.752,15.785-4.752C278.928-635.95,284.112-633.757,284.112-631.2Z" fill="#509eb6"/>
          <ellipse id="Elipse_4109" data-name="Elipse 4109" cx="14.605" cy="3.29" rx="14.605" ry="3.29" transform="translate(253.722 -635.95)" fill="#89cee2"/>
          <rect id="Rectángulo_5270" data-name="Rectángulo 5270" width="2.127" height="26.586" rx="0.532" transform="translate(267.264 -660.01)" fill="#347f96"/>
          <path id="Trazado_100795" data-name="Trazado 100795" d="M264.306-738.239c.078,3.834-4.275,6.979-7.664,7.377s-3.274-.939.4,11.3,5.38,15.816-.4,25.188-2.92,37.087-2.92,42.072,28.456,3.589,29.238,1.794,4.7-30.546-1.7-42.869c-5.7-10.952-2.693-17.348-.2-25.523s5.47-10.69,1.87-11.764c-7.355-2.193-9.661-4.1-9.888-7.178C272.814-740.864,264.271-739.967,264.306-738.239Z" fill="#509eb6"/>
          <path id="Trazado_100796" data-name="Trazado 100796" d="M272.714-737.99c0,.854-1.83,1.545-4.088,1.545s-4.087-.691-4.087-1.545,1.83-1.545,4.087-1.545S272.714-738.843,272.714-737.99Z" fill="#89cee2"/>
          <rect id="Rectángulo_5271" data-name="Rectángulo 5271" width="2.127" height="8.242" rx="0.764" transform="translate(267.563 -745.949)" fill="#347f96"/>
        </g>
        <path id="Trazado_100797" data-name="Trazado 100797" d="M254.9-690.122c-3.058,9.173-2.925,32.169-2.925,32.169a59.268,59.268,0,0,0,14.224,1.861c7.577,0,10.781-.317,10.781-.317l1.01-15.1s1.851,15,1.95,15a52.618,52.618,0,0,0,6.065-.648c0-8.375-.532-26.985-2.659-30.973s-16.616-9.1-16.616-9.1Z" fill="#e75a56"/>
        <path id="Trazado_100798" data-name="Trazado 100798" d="M258.685-680.949c5.676-.958,12.7-5.085,12.7-5.085a23.683,23.683,0,0,0,13.082,2,15.068,15.068,0,0,0-1.119-4.1c-.5-.939-8.977-10.183-10.5-11.166l-9.041,2.067-8.906,7.1a52.266,52.266,0,0,0-1.875,10C254.038-680.228,255.784-680.46,258.685-680.949Z" fill="#c93431" opacity="0.5"/>
        <path id="Trazado_100799" data-name="Trazado 100799" d="M277.243-732.855c.659,6.93-5.631,17.4-7,20.019-.521,1-3.12,21.036,1.366,24.875,3.813,3.262,13.381,1.4,13.381,1.4s-4.906-13.359-4.707-18.743,4.707-24.924,4.707-24.924Z" fill="#e75a56"/>
        <path id="Trazado_100800" data-name="Trazado 100800" d="M259.964-732.495c1.025,10.881,7.661,20.158,7.661,20.158s4.287,21.185-.7,23.877-14.257,1.2-14.257,1.2,6.48-13.858,4.985-20.438-3.988-22.931-3.988-22.931Z" fill="#e75a56"/>
        <path id="Trazado_100801" data-name="Trazado 100801" d="M258.211-732.024l.868,8.072,2.763,2.193-1.381,3.988s5.687,4.109,6.815,8.495a112.194,112.194,0,0,1,1.96,12.043c-.024.287-.085-9.606,2.526-14.107a25.389,25.389,0,0,1,6.225-7.029l-1.261-3.19,3.062-2.592-.9-8.148L276-733.449a51.588,51.588,0,0,1-3.625,10.893,45.4,45.4,0,0,0-3.425,13.528,51.328,51.328,0,0,0-3.82-13.329A88.734,88.734,0,0,1,261-732.775Z" fill="#c93431"/>
        <path id="Trazado_100802" data-name="Trazado 100802" d="M262.021-698.081l-5.932,1.546s-3.739,3.589-2.792,3.888,4.153-.349,6.015-2.094A14.446,14.446,0,0,0,262.021-698.081Z" fill="#c93431"/>
        <path id="Trazado_100803" data-name="Trazado 100803" d="M275.824-698.081l5.932,1.546s3.739,3.589,2.792,3.888-4.153-.349-6.015-2.094A14.446,14.446,0,0,1,275.824-698.081Z" fill="#c93431"/>
        <path id="Trazado_100804" data-name="Trazado 100804" d="M253.667-730.632c-1.363-.033-1.1-.3-1.894,8.607s-6.182,30.308-7.444,36.689l-1.263,6.381a17.874,17.874,0,0,0,4.519.6c1.33-.2,5.318-14.212,6.082-18.87s2.651-13.209,3.137-14.65S253.667-730.632,253.667-730.632Z" fill="#e75a56"/>
        <path id="Trazado_100805" data-name="Trazado 100805" d="M284.8-730.3c1.363-.034,1.1-.3,1.9,8.607s6.181,30.308,7.444,36.688l1.262,6.381a17.826,17.826,0,0,1-4.519.6c-1.329-.2-5.317-14.211-6.082-18.87s-3.165-13.417-3.65-14.858S284.8-730.3,284.8-730.3Z" fill="#e75a56"/>
      </g>
    </g>
    <rect id="Rectángulo_5272" data-name="Rectángulo 5272" width="400" height="329" transform="translate(915.333 176)" fill="none"/>
  </g>
</svg>
