<svg xmlns="http://www.w3.org/2000/svg" width="85.001" height="72" viewBox="0 0 85.001 72">
  <g id="Grupo_54376" data-name="Grupo 54376" transform="translate(-390 -14236)">
    <g id="Growth_love" data-name="Growth love" transform="translate(199.728 6149.365)">
      <path id="Trazado_2549" data-name="Trazado 2549" d="M223.623,8135.506a.974.974,0,0,1-.565,1.8c-8.443,0-9.692-4.409-8.4-5.962,2.971-3.577,6.586,2.021,8.963,4.161Z" transform="translate(-0.777 -1.958)" fill="#25c194"/>
      <path id="Trazado_2550" data-name="Trazado 2550" d="M243.11,8126.38c1.294,1.553.048,5.962-8.4,5.962a.974.974,0,0,1-.567-1.8C236.525,8128.4,240.139,8122.8,243.11,8126.38Z" transform="translate(-1.428 -1.792)" fill="#25c194"/>
      <path id="Trazado_2551" data-name="Trazado 2551" d="M230.9,8124.644c-.01,4.006-.018,11.819,2.706,18.338,1.376,3.134.448,3.726-.137,4.167a4.6,4.6,0,0,1-3.729.607c-.478-.1-1.547-1.45-2.183-3.45-1.61-6.931-.316-17.764.483-19.854a5.323,5.323,0,0,0,2.847.115Z" transform="translate(-1.197 -1.767)" fill="#26918e"/>
      <path id="Trazado_2552" data-name="Trazado 2552" d="M247.965,8093.427c6.155,8.876,1.9,22.4-17.034,29.727a4.539,4.539,0,0,1-.7.21,5.328,5.328,0,0,1-2.847-.115,2.647,2.647,0,0,1-.278-.1c-18.933-7.326-23.189-20.853-17.035-29.729,3.912-5.659,15.243-6.9,18.945.143,3.71-7.046,15.031-5.8,18.951-.143Z" transform="translate(-0.551 -0.571)" fill="#f77066"/>
      <path id="Trazado_2553" data-name="Trazado 2553" d="M251.614,8086.668a1.26,1.26,0,0,0-.506-.521l-2.121-1.159a1.3,1.3,0,0,1,0-2.289l2.121-1.145a1.258,1.258,0,0,0,.506-.521l1.16-2.12a1.3,1.3,0,0,1,1.145-.677,1.277,1.277,0,0,1,1.144.676l1.16,2.121a1.3,1.3,0,0,0,.522.521l2.126,1.146a1.313,1.313,0,0,1,0,2.289l-2.121,1.16a1.3,1.3,0,0,0-.522.521l-1.16,2.12a1.281,1.281,0,0,1-1.143.676,1.3,1.3,0,0,1-1.146-.676Z" transform="translate(8.083 18.779)" fill="#ffcf6e"/>
      <path id="Trazado_2554" data-name="Trazado 2554" d="M242.04,8078.86l-.808-1.45a.864.864,0,0,0-.343-.363l-1.454-.789a.895.895,0,0,1,0-1.576l1.455-.788a.915.915,0,0,0,.343-.345l.808-1.45a.883.883,0,0,1,1.555,0l.808,1.45a.926.926,0,0,0,.343.345l1.455.787a.894.894,0,0,1,0,1.577l-1.455.789a.875.875,0,0,0-.343.363l-.808,1.45a.883.883,0,0,1-1.555,0Z" transform="translate(11.08 15)" fill="#ffcf6e"/>
      <g id="Grupo_8376" data-name="Grupo 8376" transform="translate(190.98 8141.096)">
        <path id="Trazado_2555" data-name="Trazado 2555" d="M202.652,8160.434a2.751,2.751,0,0,1,.069-.67c.224-.6,1.213-.613,2.073-.87.318-.1.6-.186.7-.228a6.915,6.915,0,0,0,2.955-2.726c1.217-2.752,4.514-2.1,4.754-2.935.959-3.413,4.994-5.177,7.636-5a2.543,2.543,0,0,0,2.458-1.016,4.517,4.517,0,0,1,3.452-2.051,4.645,4.645,0,0,1,1.44.065,3.231,3.231,0,0,0,2.451-.592,5.305,5.305,0,0,1,2.157-.8c2.735-.464,6.462.483,8,3.251a3.178,3.178,0,0,0,2.523,1.587,8.012,8.012,0,0,1,6.516,5.133,2.611,2.611,0,0,0,2.075,1.569c1.391.163,3.124.44,3.711,2.61a4.9,4.9,0,0,0,1.493,1.983.387.387,0,0,1-.266.67Z" transform="translate(-191.37 -8143.499)" fill="#f99f62"/>
        <path id="Trazado_2556" data-name="Trazado 2556" d="M199.078,8159.945a2.348,2.348,0,0,1-.284,1.3h-7.3a.514.514,0,0,1-.162-1c1.45-.471,3.079-1.013,4.141-1.4a2.982,2.982,0,0,1,.911-.2c1.457-.029,2.524.533,2.69,1.3Z" transform="translate(-190.98 -8144.005)" fill="#f99f62"/>
        <path id="Trazado_2557" data-name="Trazado 2557" d="M266.9,8161.25h-2.353c-.413,0-1.1-.337-.993-.736a2.271,2.271,0,0,1,1.683-1.583,2.512,2.512,0,0,1,2.223,1.336.656.656,0,0,1-.564.984Z" transform="translate(-193.407 -8144.015)" fill="#f99f62"/>
        <path id="Trazado_2558" data-name="Trazado 2558" d="M277.935,8161.155l-6.845-.116a.473.473,0,0,1-.436-.685,5.616,5.616,0,0,1,1.063-1.483,1.049,1.049,0,0,1,1.193,0,10.839,10.839,0,0,0,3.281,1.4c.432.1,1.582.164,1.74.884Z" transform="translate(-193.643 -8144.007)" fill="#f99f62"/>
      </g>
    </g>
    <rect id="Rectángulo_5464" data-name="Rectángulo 5464" width="85" height="72" transform="translate(390 14236)" fill="none"/>
  </g>
</svg>
