<svg xmlns="http://www.w3.org/2000/svg" width="85" height="79" viewBox="0 0 85 79">
  <g id="Grupo_54370" data-name="Grupo 54370" transform="translate(-390 -14991)">
    <g id="Purse" transform="translate(204.542 6001.222)">
      <path id="Trazado_2610" data-name="Trazado 2610" d="M234.229,8989.779a12.966,12.966,0,0,0-7.13,1.993c-1.6.987-3.014,3.061-4.167,4.659a22.013,22.013,0,0,0-3.826,8.841c.707.071,4.1.4,4.8.455.107-.706,2.025-6.811,5.383-10.019a7.712,7.712,0,0,1,4.776-2.077c4.939.115,9.113,5.653,9.048,12.638.654.04,3.628.092,4.005.117l-.094-1.35C246.27,8997.491,243.181,8990.21,234.229,8989.779Z" transform="translate(-4.459 0.001)" fill="#ffb38d"/>
      <path id="Trazado_2611" data-name="Trazado 2611" d="M232.541,9036.794c3.486,6.03-.154,14.706-12.572,18.3a3.134,3.134,0,0,1-2.336-.234c-10.625-5.608-12.172-14.02-8.143-19.207,2.6-3.354,9.346-3.855,11.147.636C223.343,9031.967,230.367,9033.031,232.541,9036.794Z" transform="translate(-2.638 -6.758)" fill="#ff8878"/>
      <path id="Trazado_2612" data-name="Trazado 2612" d="M244.664,9007.4h-.01c-.38-.021-26.276-1.776-26.287-1.762-2.007-.188-6.46-.583-7.1-.675-2.133-.309-6.919,1.907-7.219,2.676,1.188.338,3.046,2.969,8.542,4.62,6.96,2.092,16.663,2.4,24.054,2a57.429,57.429,0,0,0,10.4-1.424s7.791-3.165,6.581-5.2C251.36,9007.64,248.232,9007.556,244.664,9007.4Z" transform="translate(-2.106 -2.368)" fill="#ff746a"/>
      <path id="Trazado_2613" data-name="Trazado 2613" d="M244.7,9067.523a5.832,5.832,0,0,1-.794-1.412,12.576,12.576,0,0,1-.515-1.457c-3.27-11.318-.775-44.972,1.327-51.943v-.738H244.3c-.187,0-.374.011-.552.011-3.018.046-5.906.009-8.99-.095a40.092,40.092,0,0,1-4.5-.148c-4.373-.206-8.178-.515-11.869-.907a1.1,1.1,0,0,1-.2-.019q-1.795-.183-3.477-.393a31.4,31.4,0,0,1-4.215-.562,73.81,73.81,0,0,1-8.561-1.72c-3.981,5.122-11.411,27.226-11.374,46.047.009,4.219,2.131,7.523,6.244,8.738,11.009,3.263,34.963,5.393,47.205,5.327h.019a10.953,10.953,0,0,0,1.374-.093,2.463,2.463,0,0,1-.711-.635Z" transform="translate(0 -2.869)" fill="#fceaca"/>
      <path id="Trazado_2614" data-name="Trazado 2614" d="M254.389,9009.166a.935.935,0,0,1-.883-.631c-17.916-1.434-39.334-3.062-41.513-2.975a.935.935,0,1,1-.07-1.868h.218c4.04,0,35.607,2.587,42.019,3.1a1.709,1.709,0,0,1,1.276.682,1.411,1.411,0,0,1-.044,1.309c-.169.313-.665.384-1,.384Z" transform="translate(-3.196 -2.174)" fill="#ffb38d"/>
      <path id="Trazado_2615" data-name="Trazado 2615" d="M272.729,9057.629c-3.364,3.58-3.784,1.917-6.186,4.318a22.125,22.125,0,0,1-10.748,6c-.3.046-.608.094-.906.131a2.463,2.463,0,0,1-.711-.635,5.538,5.538,0,0,1-.794-1.414,10.091,10.091,0,0,1-.515-1.457c-3.3-11.3-.869-44.783,1.224-51.756l.1-.928h.131v-.009s.3-.065.776-.2c1.542-.439,4.944-1.664,5.691-4.065,1.757,0,3.645,3.3,4.4,5.448,3.607,10.253,12.825,38.916,7.532,44.561Z" transform="translate(-9.481 -2.787)" fill="#ffd3b6"/>
      <path id="Trazado_2616" data-name="Trazado 2616" d="M219.969,9055.093c12.418-3.6,16.058-12.271,12.572-18.3-2.174-3.764-9.2-4.83-11.906-.506-1.8-4.49-8.541-3.989-11.146-.637-4.03,5.189-2.482,13.6,8.141,19.209a3.148,3.148,0,0,0,2.338.236Z" transform="translate(-2.638 -6.756)" fill="#ff8878"/>
      <path id="Trazado_2617" data-name="Trazado 2617" d="M242.99,9012.26c3.19.1,6.4.133,9.535.084C249.317,9012.395,246.262,9012.379,242.99,9012.26Z" transform="translate(-8.191 -3.512)" fill="#ffe5d2"/>
      <path id="Trazado_2618" data-name="Trazado 2618" d="M204.379,9008.087a.935.935,0,0,1-.519-1.712c1.156-.771,4.14-2.578,6.875-2.682a.916.916,0,0,1,.969.859v.039a.937.937,0,0,1-.9.971c-2.324.084-5.112,1.834-5.911,2.367a.936.936,0,0,1-.517.156Z" transform="translate(-2.012 -2.173)" fill="#ffd3b6"/>
      <path id="Trazado_2619" data-name="Trazado 2619" d="M254.685,9012.826a.963.963,0,0,1-.948-.906.978.978,0,0,1,.87-1.066c1.292-.111,4.859-.816,5.844-2.711a.934.934,0,0,1,1.253-.422l.037.02a1.008,1.008,0,0,1,.386,1.339c-1.65,3.171-6.785,3.694-7.364,3.739a.345.345,0,0,1-.078.006Z" transform="translate(-9.869 -2.788)" fill="#ffd3b6"/>
      <path id="Trazado_2620" data-name="Trazado 2620" d="M255.676,9068.566c-.3.047-.608.094-.906.131a11.537,11.537,0,0,1-1.374.094c-5.147-8.42-2.29-48.056-.281-56.271.019-.084.038-.169.057-.243a.934.934,0,0,1,1.137-.675h0a.95.95,0,0,1,.675.7,1,1,0,0,1-.009.44c-2.692,10.261-4.365,52.9.591,55.728a.513.513,0,0,1,.112.095Z" transform="translate(-9.362 -3.405)" fill="#fff"/>
      <path id="Trazado_2621" data-name="Trazado 2621" d="M246.7,9012.68c-.006,0-.106,0-.281-.012-4.347-.205-7.769-.328-9.634-.344-9.072-.08-21.607-1.469-25.234-1.893a30.794,30.794,0,0,1-7.454-1.461,1.2,1.2,0,0,1-.261-2.132.934.934,0,0,1,1.428.561,31.44,31.44,0,0,0,6.5,1.175c3.6.423,16.054,1.8,25.034,1.881,1.915.017,5.272.137,9.7.347l.23.01a.935.935,0,1,1-.032,1.869Z" transform="translate(-1.99 -2.641)" fill="#fff"/>
      <path id="Trazado_2622" data-name="Trazado 2622" d="M238.373,9005.392a1.568,1.568,0,0,0,0-.235c-.2-5.579-2.379-9.485-8.193-10.439-.319-.051-.647-.1-1-.133a6.294,6.294,0,0,0-.635-.062,12.113,12.113,0,0,0-4.03.389,11.036,11.036,0,0,0-1.589.563l-.01.01c-3.487,1.538-5.9,4.725-7.445,8.185a26.7,26.7,0,0,0-1.434,4.06,26.109,26.109,0,0,0-.83,4.789,1.4,1.4,0,0,0,1.121,1.465c1.784.381,2.821-.46,2.922-1.413.01-.052.01-.112.021-.187a41.454,41.454,0,0,1,.985-4.093v-.01c.348-1.251.718-2.452.974-3.085.021-.04.041-.092.062-.133.133-.3.462-.954.473-.974a10.331,10.331,0,0,1,2.727-3.384,7.234,7.234,0,0,1,3.476-1.467c.2-.03.41-.052.615-.072a8.491,8.491,0,0,1,1.231,0c4.685.3,5.794,2.04,6.075,5.957v.031a26.067,26.067,0,0,1-.084,4.43v.025c-.154,1.58-.287,3.384-.554,5.076-.132.882.554,1.723,1.856,1.887a2.759,2.759,0,0,0,.595.04,1.607,1.607,0,0,0,.38-.051,1.073,1.073,0,0,0,.253-.061,1.265,1.265,0,0,0,.206-.071,1.584,1.584,0,0,0,1.108-1.1,36.038,36.038,0,0,0,.654-5.568c.1-1.856.105-3.544.065-4.371Z" transform="translate(-3.538 -0.736)" fill="#fceaca"/>
    </g>
    <rect id="Rectángulo_5458" data-name="Rectángulo 5458" width="85" height="79" transform="translate(390 14991)" fill="none"/>
  </g>
</svg>
