<svg xmlns="http://www.w3.org/2000/svg" width="85" height="85.379" viewBox="0 0 85 85.379">
  <g id="Grupo_54371" data-name="Grupo 54371" transform="translate(-390 -14871.621)">
    <g id="Grupo_8389" data-name="Grupo 8389" transform="translate(202.231 6036.552)">
      <g id="Send_message" data-name="Send message" transform="translate(195.12 8835.069)">
        <path id="Trazado_2602" data-name="Trazado 2602" d="M270.351,8868.225c1.972,2.848.6,7.169-5.453,9.519a1.74,1.74,0,0,1-1.227,0c-6.057-2.348-7.416-6.67-5.453-9.518,1.253-1.807,4.882-2.209,6.066.052C265.477,8866.015,269.1,8866.418,270.351,8868.225Z" transform="translate(-200.296 -8837.7)" fill="#ff8878"/>
        <path id="Trazado_2603" data-name="Trazado 2603" d="M269.39,8851.242c1.862,1.385,1.925,4.425-1.413,7.22a1.177,1.177,0,0,1-.779.265c-4.352-.188-6.143-2.64-5.512-4.872.407-1.418,2.624-2.454,3.864-1.27C265.825,8850.89,268.208,8850.366,269.39,8851.242Z" transform="translate(-200.644 -8836.379)" fill="#ffac95"/>
        <rect id="Rect치ngulo_3120" data-name="Rect치ngulo 3120" width="62.854" height="43.2" rx="7.288" transform="matrix(0.253, -0.968, 0.968, 0.253, 0, 60.843)" fill="#799dc9"/>
        <path id="Trazado_2604" data-name="Trazado 2604" d="M214.246,8845.83l32.09,8.387-11.722,44.851-32.09-8.387Z" transform="translate(-195.736 -8835.964)" fill="#ecf6ff"/>
        <path id="Trazado_2605" data-name="Trazado 2605" d="M233.6,8868.5c-1.906-1.008-11.606-1.144-13.242-.234-2.252,1.255-.361,4.917-.361,4.917s5.608-2.229,8.088-3.65C228.108,8869.521,233.634,8868.521,233.6,8868.5Z" transform="translate(-197.126 -8837.778)" fill="#f9bb48"/>
        <path id="Trazado_2606" data-name="Trazado 2606" d="M233.74,8868.621l-.084-.048a1.621,1.621,0,0,0-.787-.156c-5.349.351-12.145,3.576-12.817,4.839-.825,1.518,3.155,6.292,5.023,5.972,2.109-.35,9.421-5.658,9.444-9.31a1.45,1.45,0,0,0-.778-1.3Z" transform="translate(-197.183 -8837.843)" fill="#ffcf6e"/>
      </g>
      <g id="Send_message-2" data-name="Send message-2" transform="translate(211.843 8875.986)">
        <path id="Trazado_2607" data-name="Trazado 2607" d="M243.965,8895.342a7.5,7.5,0,0,1,3.46.977c.677.424,3.9,2.285,5.8,8.955,1.8,6.326-1.332,13.287-8.994,16.26-8.21,3.189-17.31-1.947-21.066-5.248-3.549-3.122-9.416-4.672-9.788-8.166a3.7,3.7,0,0,1,.183-1.607c1.524-4.705,6.771-2.371,9.535-1.242,2.109.854,4.367,1.316,5.226-.791a6.562,6.562,0,0,0,.367-2.773c-.173-4.408-4.218-18.429.6-21.482,1.909-1.207,4.434-.226,4.633,1.81.27,2.843,1.477,8.522,2.317,12.28a4.94,4.94,0,0,1,1.4-.738,5.9,5.9,0,0,1,4.813.338,4.041,4.041,0,0,1,1.505,1.432Z" transform="translate(-213.359 -8879.696)" fill="#ffb38d"/>
        <g id="Grupo_8388" data-name="Grupo 8388" transform="translate(22.771 13.058)">
          <path id="Trazado_2608" data-name="Trazado 2608" d="M239.483,8900.066h-.005a.844.844,0,0,1-.841-.853,22.842,22.842,0,0,0-.423-4.23.846.846,0,0,1,1.655-.355,24.265,24.265,0,0,1,.458,4.6.847.847,0,0,1-.847.842Z" transform="translate(-238.195 -8893.94)" fill="#f4725d"/>
          <path id="Trazado_2609" data-name="Trazado 2609" d="M247.191,8899.514h-.035a.845.845,0,0,1-.811-.881,4.353,4.353,0,0,0-.955-3.2.847.847,0,1,1,1.135-1.256h0a5.834,5.834,0,0,1,1.511,4.526.845.845,0,0,1-.844.812Z" transform="translate(-238.768 -8893.938)" fill="#f4725d"/>
        </g>
      </g>
    </g>
    <rect id="Rect치ngulo_5459" data-name="Rect치ngulo 5459" width="85" height="85" transform="translate(390 14872)" fill="none"/>
  </g>
</svg>
